<svg width="741" height="741" viewBox="0 0 741 741" fill="none" xmlns="http://www.w3.org/2000/svg">
<path d="M99.2277 126.037L123.924 126.037L123.924 99.1593L99.2277 99.1593L99.2277 126.037Z" fill="#FB0AD5"/>
<path d="M74.0937 297.191L99.2495 297.191L99.2495 271.713L74.0937 271.75L74.0937 297.191Z" fill="#FED7DF"/>
<path d="M99.2277 297.191L123.924 297.191L123.924 271.294L99.2277 271.294L99.2277 297.191Z" fill="#FFA24C"/>
<path d="M49.8347 297.191L74.5312 297.191L74.5313 271.294L49.8347 271.294L49.8347 297.191Z" fill="#FB63E3"/>
<path d="M98.9022 198.185L124.383 198.185L124.383 172.508L98.9022 172.508L98.9022 198.185Z" fill="#FF0A6B"/>
<path d="M98.9022 222.337L124.383 222.337L124.383 197.64L98.9022 197.64L98.9022 222.337Z" fill="#FCF18F"/>
<path d="M98.9022 247.033L124.383 247.033L124.383 222.337L98.9022 222.337L98.9022 247.033Z" fill="#FF6251"/>
<path d="M98.9022 172.943L124.383 172.943L124.383 148.247L98.9022 148.247L98.9022 172.943Z" fill="#FB0AD5"/>
<path d="M74.531 345.932L99.2275 345.932L99.2275 320.688L74.531 320.688L74.531 345.932Z" fill="#FB63E3"/>
<path d="M74.0937 321.123L99.2495 321.123L99.2495 296.426L74.0937 296.426L74.0937 321.123Z" fill="#FF0A6B"/>
<path d="M99.25 345.932L123.933 345.932L123.933 320.664L99.25 320.688L99.25 345.932Z" fill="#FCA5B5"/>
<path d="M99.2277 395.436L123.924 395.436L123.924 370.304L99.2277 370.304L99.2277 395.436Z" fill="#FCF18F"/>
<path d="M99.2277 422.091L123.924 422.091L123.924 395.213L99.2277 395.213L99.2277 422.091Z" fill="#FB0AD5"/>
<path d="M74.0937 445.7L99.2495 445.7L99.2495 419.799L74.0937 419.799L74.0937 445.7Z" fill="#FB0AD5"/>
<path d="M99.2277 445.7L123.924 445.7L123.924 419.799L99.2277 419.799L99.2277 445.7Z" fill="#FF6251"/>
<path d="M74.0937 470.071L99.2495 470.071L99.2495 444.608L74.0937 444.608L74.0937 470.071Z" fill="#FCF18F"/>
<path d="M99.2277 470.071L123.924 470.071L123.924 444.602L99.2277 444.602L99.2277 470.071Z" fill="#FED7DF"/>
<path d="M49.8347 198.185L74.5312 198.185L74.5313 172.508L49.8347 172.508L49.8347 198.185Z" fill="#FD1B1B"/>
<path d="M49.5082 172.943L74.8799 172.943L74.8799 148.247L49.5082 148.247L49.5082 172.943Z" fill="#FB0AD5"/>
<path d="M49.5082 148.246L74.8799 148.246L74.8799 123.55L49.5082 123.55L49.5082 148.246Z" fill="#FCF18F"/>
<path d="M74.531 198.185L99.2275 198.185L99.2275 172.508L74.531 172.508L74.531 198.185Z" fill="#FD7C9A"/>
<path d="M25.1378 198.185L49.8345 198.185L49.8345 172.508L25.1378 172.508L25.1378 198.185Z" fill="#FB63E3"/>
<path d="M0.441584 198.185L25.1382 198.185L25.1382 172.508L0.441586 172.508L0.441584 198.185Z" fill="#FFA24C"/>
<path d="M0.441584 370.952L25.1382 370.952L25.1382 345.171L0.441586 345.171L0.441584 370.952Z" fill="#FCA5B5"/>
<path d="M0.244343 321.123L26.1382 321.123L26.1382 296.426L0.244345 296.426L0.244343 321.123Z" fill="#FB63E3"/>
<path d="M0.00486374 296.426L26.1382 296.426L26.1382 271.729L0.00486602 271.729L0.00486374 296.426Z" fill="#FCA5B5"/>
<path d="M0.00486374 271.73L26.1382 271.73L26.1382 247.033L0.00486602 247.033L0.00486374 271.73Z" fill="#FFA24C"/>
<path d="M99.2277 518.812L123.924 518.812L123.924 493.563L99.2277 493.563L99.2277 518.812Z" fill="#FDE400"/>
<path d="M74.531 518.812L99.2275 518.812L99.2275 493.563L74.531 493.563L74.531 518.812Z" fill="#FF6251"/>
<path d="M74.0937 493.999L99.2495 493.999L99.2495 469.302L74.0937 469.302L74.0937 493.999Z" fill="#FF0A6B"/>
<path d="M24.6195 568.106L50.5093 568.106L50.5093 543.381L24.6195 543.381L24.6195 568.106Z" fill="#FED7DF"/>
<path d="M98.4897 617.818L124.366 617.818V592.685L98.4897 592.777L98.4897 617.818Z" fill="#FF6251"/>
<path d="M98.5226 592.785L124.36 592.785L124.36 568.088L98.5226 568.088L98.5226 592.785Z" fill="#FF0A6B"/>
<path d="M98.5226 568.088L124.36 568.088L124.36 543.392L98.5226 543.392L98.5226 568.088Z" fill="#FFA24C"/>
<path d="M98.4896 642.188L124.366 642.188L124.366 617.437L98.4896 617.437L98.4896 642.188Z" fill="#FED7DF"/>
<path d="M98.8701 691.571L124.383 691.571L124.383 666.874L98.8701 666.874L98.8701 691.571Z" fill="#FD7C9A"/>
<path d="M0.245943 740.965L25.4648 740.965L25.4648 716.268L0.245945 716.268L0.245943 740.965Z" fill="#FDE400"/>
<path d="M0.768185 716.268L25.4648 716.268L25.4648 691.571L0.768187 691.571L0.768185 716.268Z" fill="white"/>
<path d="M0.245943 691.571L25.4648 691.571L25.4648 666.875L0.245945 666.875L0.245943 691.571Z" fill="#F86EAB"/>
<path d="M0.245943 666.874L25.4648 666.874L25.4648 642.178L0.245945 642.178L0.245943 666.874Z" fill="#FFA24C"/>
<path d="M49.748 740.965L74.9668 740.965L74.9668 716.268L49.748 716.268L49.748 740.965Z" fill="#FF0A6B"/>
<path d="M49.748 716.268L74.9668 716.268L74.9668 691.571L49.748 691.571L49.748 716.268Z" fill="#FED7DF"/>
<path d="M49.7487 691.571L74.8809 691.571L74.8809 666.875L49.7487 666.875L49.7487 691.571Z" fill="#FB0AD5"/>
<path d="M49.748 642.178L74.9668 642.178L74.9668 617.482L49.748 617.482L49.748 642.178Z" fill="#FCF18F"/>
<path d="M49.748 617.482L74.9668 617.482L74.9668 592.785L49.748 592.785L49.748 617.482Z" fill="#FD7E55"/>
<path d="M49.748 592.785L74.9668 592.785L74.9668 567.553L49.8343 567.553L49.748 592.785Z" fill="#FCA5B5"/>
<path d="M24.615 543.392L50.269 543.392L50.269 518.695L24.615 518.695L24.615 543.392Z" fill="#FCF18F"/>
<path d="M24.615 518.695L50.269 518.695L50.269 493.998L24.615 493.998L24.615 518.695Z" fill="#FB63E3"/>
<path d="M24.615 493.999L50.269 493.999L50.269 469.302L24.615 469.302L24.615 493.999Z" fill="#FCF18F"/>
<path d="M0.444515 593.766L25.1411 593.766L25.1411 567.553L0.444514 567.553L0.444515 593.766Z" fill="#FFA24C"/>
<path d="M98 741L124 741L124 715L98 715L98 741Z" fill="#FFA24C"/>
<path d="M74.531 740.964L99.2275 740.964L99.2275 716.268L74.531 716.268L74.531 740.964Z" fill="#3FB828"/>
<path d="M25.1378 740.965L49.8345 740.965L49.8345 716.268L25.1378 716.268L25.1378 740.965Z" fill="black"/>
<path d="M99.2277 716.267L123.924 716.267L123.924 691.571L99.2277 691.571L99.2277 716.267Z" fill="#FB0AD5"/>
<path d="M74.531 716.267L99.2275 716.267L99.2275 691.571L74.531 691.571L74.531 716.267Z" fill="#933E00"/>
<path d="M25.1378 716.268L49.8345 716.268L49.8345 691.571L25.1378 691.571L25.1378 716.268Z" fill="#51003A"/>
<path d="M25.1378 691.571L49.8345 691.571L49.8345 666.875L25.1378 666.875L25.1378 691.571Z" fill="#0A1FE2"/>
<path d="M99.2277 666.874L123.924 666.874L123.924 642.178L99.2277 642.178L99.2277 666.874Z" fill="white"/>
<path d="M74.4993 617.818L99.2329 617.818L99.2329 592.685L74.4993 592.777L74.4993 617.818Z" fill="#FFEC47"/>
<path d="M25.1378 666.874L49.8345 666.874L49.8345 642.178L25.1378 642.178L25.1378 666.874Z" fill="#00186E"/>
<path d="M25.1378 642.178L49.8345 642.178L49.8345 617.482L25.1378 617.482L25.1378 642.178Z" fill="#593B8E"/>
<path d="M25.1378 617.482L49.8345 617.482L49.8345 592.785L25.1378 592.785L25.1378 617.482Z" fill="#491747"/>
<path d="M74.531 592.785L99.2275 592.785L99.2275 568.088L74.531 568.088L74.531 592.785Z" fill="#840E7E"/>
<path d="M25.1378 592.785L49.8345 592.785L49.8345 568.089L25.1378 568.089L25.1378 592.785Z" fill="#286EF2"/>
<path d="M74.531 568.088L99.2275 568.088L99.2275 543.392L74.531 543.392L74.531 568.088Z" fill="#884515"/>
<path d="M99.2277 543.391L123.924 543.391L123.924 518.695L99.2277 518.695L99.2277 543.391Z" fill="#FCA5B5"/>
<path d="M74.531 543.391L99.2275 543.391L99.2275 518.695L74.531 518.695L74.531 543.391Z" fill="#593B8E"/>
<path d="M0.441584 543.392L25.1382 543.392L25.1382 518.695L0.441586 518.695L0.441584 543.392Z" fill="#4F4F4F"/>
<path d="M0.441584 518.695L25.1382 518.695L25.1382 493.998L0.441586 493.998L0.441584 518.695Z" fill="#51003A"/>
<path d="M99.2277 493.999L123.924 493.999L123.924 469.302L99.2277 469.302L99.2277 493.999Z" fill="#FF69D9"/>
<path d="M49.8347 493.999L74.5312 493.999L74.5313 469.303L49.8347 469.303L49.8347 493.999Z" fill="#006C2B"/>
<path d="M49.8347 543.502L74.5312 543.502L74.5313 518.051L49.8347 518.051L49.8347 543.502Z" fill="#FFA24C"/>
<path d="M0.441584 493.999L25.1382 493.999L25.1382 469.302L0.441586 469.302L0.441584 493.999Z" fill="#840E7E"/>
<path d="M0.444515 568.106L25.1411 568.106L25.1411 543.381L0.444514 543.381L0.444515 568.106Z" fill="#F80302"/>
<path d="M0.444515 618.58L25.1411 618.58L25.1411 592.686L0.444514 592.686L0.444515 618.58Z" fill="#FF0065"/>
<path d="M0.444513 642.188L25.1411 642.188L25.1411 617.437L0.444512 617.437L0.444513 642.188Z" fill="#FED7DF"/>
<path d="M49.8347 469.302L74.5312 469.302L74.5313 444.606L49.8347 444.606L49.8347 469.302Z" fill="#510102"/>
<path d="M25.1378 469.302L49.8345 469.302L49.8345 444.606L25.1378 444.606L25.1378 469.302Z" fill="#491747"/>
<path d="M0.441584 469.302L25.1382 469.302L25.1382 444.606L0.441586 444.606L0.441584 469.302Z" fill="#606A47"/>
<path d="M49.8347 444.605L74.5312 444.605L74.5313 419.909L49.8347 419.909L49.8347 444.605Z" fill="#006C2B"/>
<path d="M0.441584 444.605L25.1382 444.605L25.1382 419.909L0.441586 419.909L0.441584 444.605Z" fill="black"/>
<path d="M74.531 419.909L99.2275 419.909L99.2275 395.213L74.531 395.213L74.531 419.909Z" fill="#3FB828"/>
<path d="M49.8347 419.909L74.5312 419.909L74.5313 395.213L49.8347 395.213L49.8347 419.909Z" fill="#16DBE1"/>
<path d="M25.1378 419.909L49.8345 419.909L49.8345 395.213L25.1378 395.213L25.1378 419.909Z" fill="#006C2B"/>
<path d="M74.531 395.213L99.2275 395.213L99.2275 370.516L74.531 370.516L74.531 395.213Z" fill="#840E7E"/>
<path d="M49.8347 395.213L74.5312 395.213L74.5313 370.516L49.8347 370.516L49.8347 395.213Z" fill="#2D5F1F"/>
<path d="M25.1378 395.213L49.8345 395.213L49.8345 370.516L25.1378 370.516L25.1378 395.213Z" fill="#286EF2"/>
<path d="M0.441584 395.213L25.1382 395.213L25.1382 370.516L0.441586 370.516L0.441584 395.213Z" fill="#81ACAF"/>
<path d="M74.531 370.516L99.2275 370.516L99.2275 345.82L74.531 345.82L74.531 370.516Z" fill="#286EF2"/>
<path d="M49.8347 370.516L74.5312 370.516L74.5313 345.82L49.8347 345.82L49.8347 370.516Z" fill="black"/>
<path d="M25.1378 370.516L49.8345 370.516L49.8345 345.82L25.1378 345.82L25.1378 370.516Z" fill="#0A1FE2"/>
<path d="M49.8347 345.819L74.5312 345.819L74.5313 321.122L49.8347 321.122L49.8347 345.819Z" fill="#593B8E"/>
<path d="M25.1378 345.819L49.8345 345.819L49.8345 321.122L25.1378 321.122L25.1378 345.819Z" fill="#0D1450"/>
<path d="M0.441584 345.819L25.1382 345.819L25.1382 321.122L0.441586 321.122L0.441584 345.819Z" fill="#510102"/>
<path d="M99.2277 321.123L123.924 321.123L123.924 296.426L99.2277 296.426L99.2277 321.123Z" fill="#FD1B1B"/>
<path d="M49.8347 321.123L74.5312 321.123L74.5313 296.426L49.8347 296.426L49.8347 321.123Z" fill="#006C2B"/>
<path d="M25.1378 321.123L49.8345 321.123L49.8345 296.426L25.1378 296.426L25.1378 321.123Z" fill="#981292"/>
<path d="M25.1378 296.426L49.8345 296.426L49.8345 271.729L25.1378 271.729L25.1378 296.426Z" fill="#67C998"/>
<path d="M99.2277 271.73L123.924 271.73L123.924 247.033L99.2277 247.033L99.2277 271.73Z" fill="#FDE400"/>
<path d="M49.8347 271.729L74.5312 271.729L74.5313 247.033L49.8347 247.033L49.8347 271.729Z" fill="#593B8E"/>
<path d="M25.1378 271.73L49.8345 271.73L49.8345 247.033L25.1378 247.033L25.1378 271.73Z" fill="#0A1FE2"/>
<path d="M74.531 247.033L99.2275 247.033L99.2275 222.337L74.531 222.337L74.531 247.033Z" fill="#78CEFE"/>
<path d="M49.8347 247.033L74.5312 247.033L74.5313 222.336L49.8347 222.336L49.8347 247.033Z" fill="#46FF90"/>
<path d="M25.1378 247.033L49.8345 247.033L49.8345 222.336L25.1378 222.336L25.1378 247.033Z" fill="#16DBE1"/>
<path d="M0.441584 247.033L25.1382 247.033L25.1382 222.336L0.441586 222.336L0.441584 247.033Z" fill="#0D1450"/>
<path d="M74.531 222.337L99.2275 222.337L99.2275 197.64L74.531 197.64L74.531 222.337Z" fill="#51003A"/>
<path d="M49.8347 222.336L74.5312 222.336L74.5313 197.64L49.8347 197.64L49.8347 222.336Z" fill="#0A1FE2"/>
<path d="M25.1378 222.336L49.8345 222.336L49.8345 197.64L25.1378 197.64L25.1378 222.336Z" fill="#006C2B"/>
<path d="M0.441584 222.336L25.1382 222.336L25.1382 197.64L0.441586 197.64L0.441584 222.336Z" fill="#510102"/>
<path d="M74.531 172.943L99.2275 172.943L99.2275 148.247L74.531 148.247L74.531 172.943Z" fill="#006C2B"/>
<path d="M25.1378 172.943L49.8345 172.943L49.8345 148.247L25.1378 148.247L25.1378 172.943Z" fill="#286EF2"/>
<path d="M0.441584 172.943L25.1382 172.943L25.1382 148.247L0.441586 148.247L0.441584 172.943Z" fill="#840E7E"/>
<path d="M99.2277 148.247L123.924 148.247L123.924 123.834L99.2277 123.834L99.2277 148.247Z" fill="#FFA24C"/>
<path d="M74.531 148.247L99.2275 148.247L99.2275 123.55L74.531 123.55L74.531 148.247Z" fill="#4F4F4F"/>
<path d="M25.1378 148.246L49.8345 148.246L49.8345 123.55L25.1378 123.55L25.1378 148.246Z" fill="#884515"/>
<path d="M0.441584 148.246L25.1382 148.246L25.1382 123.55L0.441586 123.55L0.441584 148.246Z" fill="#006C2B"/>
<path d="M74.4999 691.571L99.2275 691.571L99.2275 666.794L74.4999 666.871L74.4999 691.571Z" fill="#FEF600"/>
<path d="M74.4997 666.94L99.2275 666.94L99.2275 642.188L74.4997 642.188L74.4997 666.94Z" fill="#FF0A6B"/>
<path d="M74.4991 642.188H99.2329L99.2329 617.437L74.4991 617.437L74.4991 642.188Z" fill="#F80302"/>
<path d="M49.8347 666.874L74.5312 666.874L74.5313 642.178L49.8347 642.178L49.8347 666.874Z" fill="#16DBE1"/>
<path d="M49.8347 568.092L74.5312 568.092L74.5312 543.502L49.8347 543.502L49.8347 568.092Z" fill="#FB63E3"/>
<path d="M49.8347 518.695L74.5312 518.695L74.5313 493.998L49.8347 493.998L49.8347 518.695Z" fill="black"/>
<path d="M99.25 370.516L123.933 370.516L123.933 345.797L99.25 345.82L99.25 370.516Z" fill="#FB021A"/>
<path d="M74.531 49.8789L99.2275 49.8789L99.2275 24.6341L74.531 24.6341L74.531 49.8789Z" fill="#FB63E3"/>
<path d="M74.0937 25.069L99.2495 25.069L99.2495 0.372431L74.0937 0.372429L74.0937 25.069Z" fill="#FF0A6B"/>
<path d="M99.25 49.8789L123.933 49.8789L123.933 24.6104L99.25 24.6341L99.25 49.8789Z" fill="#FCA5B5"/>
<path d="M99.2277 99.3816L123.924 99.3816L123.924 74.2493L99.2277 74.2493L99.2277 99.3816Z" fill="#FCF18F"/>
<path d="M0.441584 74.8978L25.1382 74.8978L25.1382 49.1172L0.441586 49.1172L0.441584 74.8978Z" fill="#FCA5B5"/>
<path d="M0.244343 25.069L26.1382 25.069L26.1382 0.372431L0.244345 0.372429L0.244343 25.069Z" fill="#FB63E3"/>
<path d="M74.531 123.855L99.2275 123.855L99.2275 99.1589L74.531 99.1589L74.531 123.855Z" fill="#3FB828"/>
<path d="M49.8347 123.855L74.5312 123.855L74.5313 99.1588L49.8347 99.1588L49.8347 123.855Z" fill="#16DBE1"/>
<path d="M25.1378 123.855L49.8345 123.855L49.8345 99.1588L25.1378 99.1588L25.1378 123.855Z" fill="#006C2B"/>
<path d="M74.531 99.1589L99.2275 99.1589L99.2275 74.4624L74.531 74.4624L74.531 99.1589Z" fill="#840E7E"/>
<path d="M49.8347 99.1588L74.5312 99.1588L74.5313 74.4622L49.8347 74.4622L49.8347 99.1588Z" fill="#2D5F1F"/>
<path d="M25.1378 99.1588L49.8345 99.1588L49.8345 74.4622L25.1378 74.4622L25.1378 99.1588Z" fill="#286EF2"/>
<path d="M0.441584 99.1588L25.1382 99.1588L25.1382 74.4622L0.441586 74.4622L0.441584 99.1588Z" fill="#81ACAF"/>
<path d="M74.531 74.4624L99.2275 74.4624L99.2275 49.7659L74.531 49.7659L74.531 74.4624Z" fill="#286EF2"/>
<path d="M49.8347 74.4623L74.5312 74.4623L74.5313 49.7658L49.8347 49.7658L49.8347 74.4623Z" fill="black"/>
<path d="M25.1378 74.4623L49.8345 74.4623L49.8345 49.7658L25.1378 49.7658L25.1378 74.4623Z" fill="#0A1FE2"/>
<path d="M49.8347 49.7655L74.5312 49.7655L74.5313 25.0689L49.8347 25.0689L49.8347 49.7655Z" fill="#593B8E"/>
<path d="M25.1378 49.7655L49.8345 49.7655L49.8345 25.0689L25.1378 25.0689L25.1378 49.7655Z" fill="#0D1450"/>
<path d="M0.441584 49.7655L25.1382 49.7655L25.1382 25.0689L0.441586 25.0689L0.441584 49.7655Z" fill="#510102"/>
<path d="M99.2277 25.069L123.924 25.069L123.924 0.372431L99.2277 0.372429L99.2277 25.069Z" fill="#FD1B1B"/>
<path d="M49.8347 25.069L74.5312 25.069L74.5313 0.372431L49.8347 0.372429L49.8347 25.069Z" fill="#006C2B"/>
<path d="M25.1378 25.069L49.8345 25.069L49.8345 0.372431L25.1378 0.372429L25.1378 25.069Z" fill="#981292"/>
<path d="M99.25 74.4624L123.933 74.4624L123.933 49.7427L99.25 49.7659L99.25 74.4624Z" fill="#FB021A"/>
<path d="M542.987 321.123L568.12 321.123L568.12 296.426L542.987 296.426L542.987 321.123Z" fill="#FD7E55"/>
<path d="M494.004 173.27L518.7 173.27L518.7 147.921L494.004 147.921L494.004 173.27Z" fill="#FED7DF"/>
<path d="M493.485 148.246L519.026 148.246L519.026 123.55L493.485 123.55L493.485 148.246Z" fill="#FCF18F"/>
<path d="M494.004 222.772L518.7 222.772L518.7 197.424L494.004 197.424L494.004 222.772Z" fill="#FED7DF"/>
<path d="M469.308 222.556L494.004 222.556L494.004 197.424L469.308 197.424L469.308 222.556Z" fill="#FB63E3"/>
<path d="M469.114 197.64L494.439 197.64L494.439 172.944L469.114 172.944L469.114 197.64Z" fill="#FE422E"/>
<path d="M468.871 272.821L494.247 272.821L494.247 246.597L468.871 246.597L468.871 272.821Z" fill="#FED7DF"/>
<path d="M444.61 272.821L469.307 272.821L469.307 246.597L444.61 246.597L444.61 272.821Z" fill="#FCF18F"/>
<path d="M468.871 296.426L494.247 296.426L494.247 271.73L468.871 271.73L468.871 296.426Z" fill="#FF0A6B"/>
<path d="M444.61 222.556L469.307 222.556L469.307 197.314L444.61 197.314L444.61 222.556Z" fill="#FCF18F"/>
<path d="M443.982 247.033L469.633 247.033L469.633 222.337L443.982 222.337L443.982 247.033Z" fill="#FF0A6B"/>
<path d="M370.085 297.191L395.241 297.191L395.241 271.713L370.085 271.75L370.085 297.191Z" fill="#FED7DF"/>
<path d="M419.915 297.191L444.611 297.191L444.611 271.294L419.915 271.294L419.915 297.191Z" fill="#FB63E3"/>
<path d="M395.217 297.191L419.914 297.191L419.914 271.294L395.217 271.294L395.217 297.191Z" fill="#FFA24C"/>
<path d="M345.824 297.191L370.52 297.191L370.52 271.294L345.824 271.294L345.824 297.191Z" fill="#FB63E3"/>
<path d="M419.611 148.247L445.046 148.247L445.046 123.55L419.611 123.55L419.611 148.247Z" fill="#FDE400"/>
<path d="M394.891 198.185L420.372 198.185L420.372 172.508L394.891 172.508L394.891 198.185Z" fill="#FF0A6B"/>
<path d="M394.891 222.336L420.372 222.336L420.372 197.64L394.891 197.64L394.891 222.336Z" fill="#FCF18F"/>
<path d="M419.915 222.556L444.611 222.556L444.611 197.204L419.915 197.204L419.915 222.556Z" fill="#FFA24C"/>
<path d="M394.891 247.033L420.372 247.033L420.372 222.337L394.891 222.337L394.891 247.033Z" fill="#FF6251"/>
<path d="M394.891 172.943L420.372 172.943L420.372 148.247L394.891 148.247L394.891 172.943Z" fill="#FB0AD5"/>
<path d="M370.521 345.932L395.217 345.932L395.217 320.688L370.521 320.688L370.521 345.932Z" fill="#FB63E3"/>
<path d="M370.085 321.123L395.241 321.123L395.241 296.426L370.085 296.426L370.085 321.123Z" fill="#FF0A6B"/>
<path d="M395.241 345.932L419.924 345.932L419.924 320.664L395.241 320.688L395.241 345.932Z" fill="#FCA5B5"/>
<path d="M395.217 395.435L419.914 395.435L419.914 370.303L395.217 370.303L395.217 395.435Z" fill="#FCF18F"/>
<path d="M419.611 370.516L444.936 370.516L444.936 345.82L419.611 345.82L419.611 370.516Z" fill="#FFA24C"/>
<path d="M419.611 345.819L444.936 345.819L444.936 321.122L419.611 321.122L419.611 345.819Z" fill="#FDE400"/>
<path d="M493.485 395.213L519.026 395.213L519.026 370.516L493.485 370.516L493.485 395.213Z" fill="#FCF18F"/>
<path d="M469.308 394.886L494.004 394.886L494.004 370.19L469.308 370.19L469.308 394.886Z" fill="#FB0AD5"/>
<path d="M493.484 420.932L519.135 420.932L519.135 394.783L493.484 394.783L493.484 420.932Z" fill="#FB021A"/>
<path d="M443.981 420.932L469.742 420.932L469.742 394.783L443.981 394.783L443.981 420.932Z" fill="#FF0A6B"/>
<path d="M395.217 422.091L419.914 422.091L419.914 395.213L395.217 395.213L395.217 422.091Z" fill="#FB0AD5"/>
<path d="M469.308 420.932L494.004 420.932L494.004 394.783L469.308 394.783L469.308 420.932Z" fill="white"/>
<path d="M419.915 420.932L444.611 420.932L444.611 394.783L419.915 394.783L419.915 420.932Z" fill="#FD7C9A"/>
<path d="M494.004 470.485L518.7 470.485L518.7 444.181L494.004 444.181L494.004 470.485Z" fill="#FB63E3"/>
<path d="M493.484 444.605L519.135 444.605L519.135 419.909L493.484 419.909L493.484 444.605Z" fill="#FDE400"/>
<path d="M518.7 470.832L543.397 470.832V444.177L518.7 444.177L518.7 470.832Z" fill="#FF0A6B"/>
<path d="M543.397 470.147L568.093 470.147L568.093 444.17L543.397 444.17L543.397 470.147Z" fill="#FCF18F"/>
<path d="M518.7 519.021L543.397 519.021V493.995L518.7 493.995L518.7 519.021Z" fill="#FB0AD5"/>
<path d="M469.114 543.391L494.439 543.391L494.439 518.695L469.114 518.695L469.114 543.391Z" fill="#FB63E3"/>
<path d="M469.114 518.695L494.439 518.695L494.439 493.998L469.114 493.998L469.114 518.695Z" fill="#FF0065"/>
<path d="M493.485 568.315L519.378 568.315L519.378 543.182L493.485 543.182L493.485 568.315Z" fill="#FDE427"/>
<path d="M444.61 593.111L469.307 593.111L469.307 567.553L444.61 567.553L444.61 593.111Z" fill="#FCF18F"/>
<path d="M641.748 568.634L667.888 568.634L667.888 542.421L641.748 542.421L641.748 568.634Z" fill="#FCF18F"/>
<path d="M666.88 568.634L691.576 568.634L691.576 542.421L666.88 542.421L666.88 568.634Z" fill="#FF0065"/>
<path d="M617.488 568.185L642.184 568.185L642.184 542.749L617.488 542.749L617.488 568.185Z" fill="#FF6251"/>
<path d="M641.748 543.353L667.888 543.353L667.888 518.05L641.748 518.05L641.748 543.353Z" fill="#FD1B1B"/>
<path d="M666.88 543.365L691.576 543.365L691.576 518.05L666.88 518.05L666.88 543.365Z" fill="#FDE400"/>
<path d="M617.242 543.34L642.184 543.34L642.184 518.369L617.488 518.369L617.242 543.34Z" fill="#F84954"/>
<path d="M641.748 518.812L667.888 518.812L667.888 493.68L641.748 493.68L641.748 518.812Z" fill="#FF0A6B"/>
<path d="M666.88 518.812L691.576 518.812L691.576 493.68L666.88 493.68L666.88 518.812Z" fill="#FCF18F"/>
<path d="M641.748 493.998L667.888 493.998L667.888 469.302L641.748 469.302L641.748 493.998Z" fill="#FD7C9A"/>
<path d="M641.748 469.302L667.888 469.302L667.888 444.606L641.748 444.606L641.748 469.302Z" fill="#FFA24C"/>
<path d="M444.61 470.071L469.307 470.071L469.307 444.17L444.61 444.17L444.61 470.071Z" fill="#FD1B1B"/>
<path d="M443.981 444.605L469.742 444.605L469.742 419.909L443.981 419.909L443.981 444.605Z" fill="#FB63E3"/>
<path d="M370.085 445.7L395.241 445.7L395.241 419.799L370.085 419.799L370.085 445.7Z" fill="#FB0AD5"/>
<path d="M395.217 445.7L419.914 445.7L419.914 419.799L395.217 419.799L395.217 445.7Z" fill="#FF6251"/>
<path d="M370.085 470.071L395.241 470.071L395.241 444.608L370.085 444.608L370.085 470.071Z" fill="#FCF18F"/>
<path d="M469.308 470.071L494.004 470.071L494.004 444.17L469.308 444.17L469.308 470.071Z" fill="black"/>
<path d="M419.915 470.071L444.611 470.071L444.611 444.17L419.915 444.17L419.915 470.071Z" fill="#FFA24C"/>
<path d="M395.217 470.071L419.914 470.071L419.914 444.602L395.217 444.602L395.217 470.071Z" fill="#FED7DF"/>
<path d="M172.512 419.8L197.99 419.8L197.99 394.674L172.512 394.674L172.512 419.8Z" fill="#FF0A6B"/>
<path d="M172.858 395.213L198.08 395.213L198.08 370.516L172.858 370.516L172.858 395.213Z" fill="white"/>
<path d="M172.512 444.931L197.99 444.931L197.99 419.806L172.512 419.806L172.512 444.931Z" fill="#FFA24C"/>
<path d="M172.949 272.165L197.645 272.165L197.645 246.927L172.949 246.927L172.949 272.165Z" fill="#FCF18F"/>
<path d="M172.512 296.426L197.99 296.426L197.99 271.73L172.512 271.73L172.512 296.426Z" fill="#FB0AD5"/>
<path d="M197.645 272.165L222.341 272.165L222.341 246.927L197.645 246.927L197.645 272.165Z" fill="#FFA24C"/>
<path d="M345.824 198.185L370.52 198.185L370.52 172.508L345.824 172.508L345.824 198.185Z" fill="#FD1B1B"/>
<path d="M345.498 172.943L370.87 172.943L370.87 148.247L345.498 148.247L345.498 172.943Z" fill="#FB0AD5"/>
<path d="M345.498 148.246L370.87 148.246L370.87 123.55L345.498 123.55L345.498 148.246Z" fill="#FCF18F"/>
<path d="M370.521 198.185L395.217 198.185L395.217 172.508L370.521 172.508L370.521 198.185Z" fill="#FD7C9A"/>
<path d="M321.128 198.185L345.824 198.185L345.824 172.508L321.128 172.508L321.128 198.185Z" fill="#FB63E3"/>
<path d="M296.43 198.185L321.127 198.185L321.127 172.508L296.43 172.508L296.43 198.185Z" fill="#FFA24C"/>
<path d="M271.735 198.185L296.431 198.185L296.431 172.508L271.735 172.508L271.735 198.185Z" fill="#FED7DF"/>
<path d="M221.905 197.64L247.493 197.64L247.493 172.944L221.905 172.944L221.905 197.64Z" fill="#FF0A6B"/>
<path d="M221.905 222.337L247.493 222.337L247.493 197.64L221.905 197.64L221.905 222.337Z" fill="#FCF18F"/>
<path d="M197.319 197.64L222.361 197.64L222.361 172.944L197.319 172.944L197.319 197.64Z" fill="#FE422E"/>
<path d="M197.645 173.053L222.341 173.053L222.341 147.921L197.645 147.921L197.645 173.053Z" fill="#FED7DF"/>
<path d="M296.43 370.952L321.127 370.952L321.127 345.171L296.43 345.171L296.43 370.952Z" fill="#FCA5B5"/>
<path d="M271.735 370.952L296.432 370.952L296.432 345.171L271.735 345.171L271.735 370.952Z" fill="#FCF18F"/>
<path d="M271.408 395.213L296.996 395.213L296.996 370.516L271.408 370.516L271.408 395.213Z" fill="#FF0A6B"/>
<path d="M296.235 321.123L322.128 321.123L322.128 296.426L296.235 296.426L296.235 321.123Z" fill="#FB63E3"/>
<path d="M295.995 296.426L322.128 296.426L322.128 271.73L295.995 271.73L295.995 296.426Z" fill="#FCA5B5"/>
<path d="M295.995 271.73L322.128 271.73L322.128 247.033L295.995 247.033L295.995 271.73Z" fill="#FFA24C"/>
<path d="M247.037 272.059L271.734 272.059L271.734 246.707L247.037 246.707L247.037 272.059Z" fill="#F86EAB"/>
<path d="M246.712 321.123L271.864 321.123L271.864 296.426L246.712 296.426L246.712 321.123Z" fill="#FF6251"/>
<path d="M246.712 296.426L271.864 296.426L271.864 271.73L246.712 271.73L246.712 296.426Z" fill="#FCF18F"/>
<path d="M197.228 370.516L222.777 370.516L222.777 345.82L197.228 345.82L197.228 370.516Z" fill="#FCF18F"/>
<path d="M197.228 345.819L222.777 345.819L222.777 321.122L197.228 321.122L197.228 345.819Z" fill="#FFA24C"/>
<path d="M197.228 321.123L222.777 321.123L222.777 296.426L197.228 296.426L197.228 321.123Z" fill="#FB63E3"/>
<path d="M617.488 445.042L642.184 445.042L642.184 419.806L617.488 419.806L617.488 445.042Z" fill="#FCA5B5"/>
<path d="M592.789 445.042L617.486 445.042L617.486 419.806L592.789 419.806L592.789 445.042Z" fill="#F86EAB"/>
<path d="M568.12 419.909L592.899 419.909L592.899 395.213L568.12 395.213L568.12 419.909Z" fill="#FDE400"/>
<path d="M568.094 321.562L592.791 321.562L592.791 295.99L568.094 295.99L568.094 321.562Z" fill="#FED7DF"/>
<path d="M666.444 395.538L692.258 395.538L692.258 370.303L666.444 370.303L666.444 395.538Z" fill="#FED7DF"/>
<path d="M642.183 371.065L666.879 371.065L666.879 345.274L642.183 345.274L642.183 371.065Z" fill="#FCF18F"/>
<path d="M666.444 444.558L692.258 444.461L692.258 419.583L666.444 419.583L666.444 444.558Z" fill="#FDE400"/>
<path d="M666.444 419.909L692.258 419.909L692.258 395.213L666.444 395.213L666.444 419.909Z" fill="#FF0A6B"/>
<path d="M617.488 346.036L642.184 346.036L642.184 321.233L617.488 321.233L617.488 346.036Z" fill="#FFA24C"/>
<path d="M617.16 370.516L642.181 370.516V345.82L617.16 345.82L617.16 370.516Z" fill="#FB0AD5"/>
<path d="M691.576 395.538L716.272 395.538L716.272 370.303L691.576 370.303L691.576 395.538Z" fill="#FB0AD5"/>
<path d="M691.576 321.665L716.272 321.665L716.272 296.43L691.576 296.43L691.576 321.665Z" fill="#FED7DF"/>
<path d="M691.14 370.516L716.628 370.516L716.628 345.82L691.14 345.82L691.14 370.516Z" fill="#F80302"/>
<path d="M691.14 345.819L716.628 345.819L716.628 321.122L691.14 321.122L691.14 345.819Z" fill="#FCA5B5"/>
<path d="M691.576 469.309L716.272 469.309L716.272 444.17L691.576 444.17L691.576 469.309Z" fill="#FFA24C"/>
<path d="M716.273 568.524L740.969 568.524L740.969 543.183L716.273 543.183L716.273 568.524Z" fill="#FF0A6B"/>
<path d="M568.094 519.131L592.791 519.131L592.791 493.68L568.094 493.68L568.094 519.131Z" fill="#FB63E3"/>
<path d="M543.071 568.088L568.882 568.088L568.882 543.392L543.071 543.392L543.071 568.088Z" fill="#FF0A6B"/>
<path d="M568.094 568.524L592.791 568.524L592.791 543.183L568.094 543.183L568.094 568.524Z" fill="#FCF18F"/>
<path d="M543.071 617.478H568.882L568.882 592.675L543.071 592.675L543.071 617.478Z" fill="#F0592D"/>
<path d="M543.071 592.785L568.882 592.785L568.882 568.088L543.071 568.088L543.071 592.785Z" fill="#FCA5B5"/>
<path d="M568.881 617.477H543.07V642.288H568.881V617.477Z" fill="#FDE427"/>
<path d="M543.071 543.391L568.882 543.391L568.882 518.695L543.071 518.695L543.071 543.391Z" fill="#FFA24C"/>
<path d="M493.678 642.188L519.378 642.188L519.378 617.046L493.678 617.046L493.678 642.188Z" fill="#FFA24C"/>
<path d="M493.678 666.875L519.378 666.875L519.378 642.178L493.678 642.178L493.678 666.875Z" fill="#FF0A6B"/>
<path d="M493.678 617.481L519.378 617.481L519.378 592.785L493.678 592.785L493.678 617.481Z" fill="#FED7DF"/>
<path d="M493.678 592.785L519.378 592.785L519.378 568.088L493.678 568.088L493.678 592.785Z" fill="#FD1B1B"/>
<path d="M172.512 493.999L197.99 493.999L197.99 469.302L172.512 469.302L172.512 493.999Z" fill="#FB63E3"/>
<path d="M172.512 469.302L197.99 469.302L197.99 444.606L172.512 444.606L172.512 469.302Z" fill="#FF6251"/>
<path d="M419.478 543.392L444.743 543.392L444.743 518.695L419.478 518.695L419.478 543.392Z" fill="#FCF18F"/>
<path d="M419.478 518.695L444.743 518.695L444.743 493.998L419.478 493.998L419.478 518.695Z" fill="#FB0AD5"/>
<path d="M395.217 518.812L419.914 518.812L419.914 493.563L395.217 493.563L395.217 518.812Z" fill="#FDE400"/>
<path d="M370.521 518.812L395.217 518.812L395.217 493.563L370.521 493.563L370.521 518.812Z" fill="#FF6251"/>
<path d="M370.085 493.999L395.241 493.999L395.241 469.302L370.085 469.302L370.085 493.999Z" fill="#FF0A6B"/>
<path d="M247.037 543.501L271.734 543.501L271.734 518.05L247.037 518.05L247.037 543.501Z" fill="#FED7DF"/>
<path d="M222.342 543.502L247.038 543.502L247.038 518.05L222.342 518.05L222.342 543.502Z" fill="#FCF18F"/>
<path d="M320.609 568.106L346.499 568.106L346.499 543.38L320.609 543.38L320.609 568.106Z" fill="#FED7DF"/>
<path d="M469.308 642.188L494.004 642.188L494.004 617.046L469.308 617.046L469.308 642.188Z" fill="#FEF600"/>
<path d="M444.61 642.188L469.307 642.188L469.307 617.046L444.61 617.046L444.61 642.188Z" fill="#FD1B1B"/>
<path d="M469.308 691.691L494.004 691.691L494.004 666.438L469.308 666.438L469.308 691.691Z" fill="#FB63E3"/>
<path d="M444.61 691.691L469.307 691.691L469.307 666.438L444.61 666.438L444.61 691.691Z" fill="#FF0A6B"/>
<path d="M419.915 667.31L444.611 667.31L444.611 642.188L419.915 642.188L419.915 667.31Z" fill="#FCF18F"/>
<path d="M394.479 617.818L420.355 617.818L420.355 592.686L394.479 592.778L394.479 617.818Z" fill="#FF6251"/>
<path d="M394.511 592.785L420.349 592.785L420.349 568.088L394.511 568.088L394.511 592.785Z" fill="#FF0A6B"/>
<path d="M394.511 568.088L420.349 568.088L420.349 543.392L394.511 543.392L394.511 568.088Z" fill="#FFA24C"/>
<path d="M394.479 642.188L420.355 642.188L420.355 617.437L394.479 617.437L394.479 642.188Z" fill="#FED7DF"/>
<path d="M394.86 691.571L420.373 691.571L420.373 666.874L394.86 666.874L394.86 691.571Z" fill="#FD7C9A"/>
<path d="M543.07 716.267L568.881 716.267L568.881 691.571L543.07 691.571L543.07 716.267Z" fill="#FCF18F"/>
<path d="M543.07 691.571L568.881 691.571L568.881 666.874L543.07 666.874L543.07 691.571Z" fill="#FB63E3"/>
<path d="M543.07 666.875L568.881 666.875L568.881 642.178L543.07 642.178L543.07 666.875Z" fill="#FF0A6B"/>
<path d="M296.234 740.964L321.453 740.964L321.453 716.268L296.234 716.268L296.234 740.964Z" fill="#FDE400"/>
<path d="M296.756 716.267L321.453 716.267L321.453 691.571L296.756 691.571L296.756 716.267Z" fill="white"/>
<path d="M296.234 691.571L321.453 691.571L321.453 666.874L296.234 666.874L296.234 691.571Z" fill="#F86EAB"/>
<path d="M296.234 666.875L321.453 666.875L321.453 642.178L296.234 642.178L296.234 666.875Z" fill="#FFA24C"/>
<path d="M246.732 642.95L271.103 642.95L271.103 617.818L246.732 617.818L246.732 642.95Z" fill="#FB021A"/>
<path d="M222.361 617.818L246.732 617.818L246.732 593.447L222.361 593.447L222.361 617.818Z" fill="#FED7DF"/>
<path d="M197.99 617.818L222.361 617.818L222.361 593.447L197.99 593.447L197.99 617.818Z" fill="#FE422E"/>
<path d="M148.487 716.062L173.62 716.062L173.62 691.692L148.487 691.692L148.487 716.062Z" fill="#FB63E3"/>
<path d="M148.487 691.691L173.62 691.691L173.62 667.32L148.487 667.32L148.487 691.691Z" fill="#FE422E"/>
<path d="M148.487 667.321L173.62 667.321L173.62 642.95L148.487 642.95L148.487 667.321Z" fill="#FF0A6B"/>
<path d="M148.487 619.341L173.62 619.341L173.62 594.209L148.487 594.209L148.487 619.341Z" fill="#FFA24C"/>
<path d="M148.487 642.95L173.62 642.95L173.62 619.341L148.487 619.341L148.487 642.95Z" fill="#FDE400"/>
<path d="M246.732 715.301L271.864 715.301L271.864 691.691L246.732 691.691L246.732 715.301Z" fill="#FF0A6B"/>
<path d="M197.99 716.062L223.884 716.062L223.884 690.93L197.99 690.93L197.99 716.062Z" fill="#FB0AD5"/>
<path d="M173.62 717.586L197.991 717.586L197.991 690.93L173.62 690.93L173.62 717.586Z" fill="#FCF18F"/>
<path d="M223.884 716.062L246.732 716.062L246.732 690.93L223.884 690.93L223.884 716.062Z" fill="#FFA24C"/>
<path d="M246.732 691.691L272.626 691.691L272.626 667.32L246.732 667.32L246.732 691.691Z" fill="#FD7C9A"/>
<path d="M246.732 667.321L271.864 667.321L271.864 642.95L246.732 642.95L246.732 667.321Z" fill="#FED7DF"/>
<path d="M345.737 740.964L370.956 740.964L370.956 716.268L345.737 716.268L345.737 740.964Z" fill="#FF0A6B"/>
<path d="M345.737 716.267L370.956 716.267L370.956 691.571L345.737 691.571L345.737 716.267Z" fill="#FED7DF"/>
<path d="M345.738 691.571L370.87 691.571L370.87 666.874L345.738 666.874L345.738 691.571Z" fill="#FB0AD5"/>
<path d="M345.737 642.178L370.956 642.178L370.956 617.481L345.737 617.481L345.737 642.178Z" fill="#FCF18F"/>
<path d="M345.737 617.481L370.956 617.481L370.956 592.785L345.737 592.785L345.737 617.481Z" fill="#FD7E55"/>
<path d="M345.737 592.785L370.956 592.785L370.956 567.554L345.824 567.554L345.737 592.785Z" fill="#FCA5B5"/>
<path d="M320.605 543.392L346.259 543.392L346.259 518.695L320.605 518.695L320.605 543.392Z" fill="#FCF18F"/>
<path d="M320.605 518.695L346.259 518.695L346.259 493.998L320.605 493.998L320.605 518.695Z" fill="#FB63E3"/>
<path d="M320.605 493.999L346.259 493.999L346.259 469.302L320.605 469.302L320.605 493.999Z" fill="#FCF18F"/>
<path d="M296.435 593.767L321.131 593.767L321.131 567.554L296.435 567.554L296.435 593.767Z" fill="#FFA24C"/>
<path d="M197.229 568.634L223.123 568.634L223.123 543.381L197.229 543.381L197.229 568.634Z" fill="#FCA5B5"/>
<path d="M147.726 568.315L173.62 568.315L173.62 543.183L147.726 543.183L147.726 568.315Z" fill="#FD7E55"/>
<path d="M148.251 345.932L172.948 345.932L172.948 320.8L148.251 320.8L148.251 345.932Z" fill="#FB0AD5"/>
<path d="M172.949 222.556L197.645 222.556L197.645 197.314L172.949 197.314L172.949 222.556Z" fill="#FFA24C"/>
<path d="M172.949 173.27L197.645 173.27L197.645 147.921L172.949 147.921L172.949 173.27Z" fill="#FB63E3"/>
<path d="M197.991 148.247L172.858 148.247L172.858 123.55L197.991 123.55L197.991 148.247Z" fill="white"/>
<path d="M123.555 420.568L148.252 420.568L148.252 394.777L123.555 394.777L123.555 420.568Z" fill="#F84954"/>
<path d="M123.555 519.131L148.252 519.131L148.252 493.68L123.555 493.68L123.555 519.131Z" fill="#FED7DF"/>
<path d="M690.734 691.691L715.105 691.691L715.105 667.32L690.734 667.32L690.734 691.691Z" fill="#FFEC47"/>
<path d="M690.734 643.712L715.105 643.712L715.105 617.818L690.734 617.818L690.734 643.712Z" fill="#FB0AD5"/>
<path d="M689.973 667.321L715.105 667.321L715.105 643.712L689.973 643.712L689.973 667.321Z" fill="#FED7DF"/>
<path d="M617.623 619.341L641.994 619.341L641.994 594.209L617.623 594.209L617.623 619.341Z" fill="#FF6251"/>
<path d="M594.014 691.691L617.623 691.691L617.623 666.82L594.014 666.82L594.014 691.691Z" fill="#FCF18F"/>
<path d="M690.734 617.818L715.105 617.818L715.105 593.447L690.734 593.447L690.734 617.818Z" fill="#FCF18F"/>
<path d="M468.353 740.957L494.247 740.957L494.247 716.062L468.353 716.062L468.353 740.957Z" fill="#FCF18F"/>
<path d="M666.364 617.818L691.497 617.818L691.497 594.209L666.364 594.209L666.364 617.818Z" fill="#FD7C9A"/>
<path d="M444.595 740.957L469.286 740.957L469.286 716.062L444.595 716.062L444.595 740.957Z" fill="#FD7C9A"/>
<path d="M395.241 740.957L419.784 740.957L419.784 716.062L395.241 716.062L395.241 740.957Z" fill="#FFA24C"/>
<path d="M419.611 740.957L444.606 740.957L444.606 716.062L419.611 716.062L419.611 740.957Z" fill="#FB63E3"/>
<path d="M592.491 642.188L617.623 642.188L617.623 617.056L592.491 617.056L592.491 642.188Z" fill="#FFA24C"/>
<path d="M594.014 617.437L617.623 617.482L617.623 593.447L594.014 593.447L594.014 617.437Z" fill="#FDE400"/>
<path d="M690.734 715.3L715.105 715.3L715.105 691.691L690.734 691.691L690.734 715.3Z" fill="#FF0A6B"/>
<path d="M592.491 715.3L617.623 715.3L617.623 691.691L592.491 691.691L592.491 715.3Z" fill="#FED7DF"/>
<path d="M617.623 716.062L641.994 716.062L641.994 691.692L617.623 691.692L617.623 716.062Z" fill="#FB63E3"/>
<path d="M666.365 716.062L690.735 716.062L690.735 691.692L666.365 691.692L666.365 716.062Z" fill="#FFA24C"/>
<path d="M641.994 716.062L666.365 716.062L666.365 690.93L641.994 690.93L641.994 716.062Z" fill="#FB021A"/>
<path d="M494.004 740.964L518.7 740.964L518.7 716.268L494.004 716.268L494.004 740.964Z" fill="#3FB828"/>
<path d="M543.507 740.964L568.203 740.964L568.203 716.268L543.507 716.268L543.507 740.964Z" fill="#FFA24C"/>
<path d="M370.521 740.964L395.217 740.964L395.217 716.268L370.521 716.268L370.521 740.964Z" fill="#3FB828"/>
<path d="M321.128 740.964L345.824 740.964L345.824 716.268L321.128 716.268L321.128 740.964Z" fill="black"/>
<path d="M518.7 716.267L543.397 716.267L543.397 691.571L518.7 691.571L518.7 716.267Z" fill="#510102"/>
<path d="M494.004 716.267L518.7 716.267L518.7 691.571L494.004 691.571L494.004 716.267Z" fill="#46FF90"/>
<path d="M469.308 716.267L494.004 716.267L494.004 691.571L469.308 691.571L469.308 716.267Z" fill="#593B8E"/>
<path d="M444.61 716.267L469.307 716.267L469.307 691.571L444.61 691.571L444.61 716.267Z" fill="black"/>
<path d="M419.478 716.267L444.612 716.267L444.612 691.571L419.478 691.571L419.478 716.267Z" fill="#FE422E"/>
<path d="M395.217 716.267L419.914 716.267L419.914 691.571L395.217 691.571L395.217 716.267Z" fill="#286EF2"/>
<path d="M370.521 716.267L395.217 716.267L395.217 691.571L370.521 691.571L370.521 716.267Z" fill="#933E00"/>
<path d="M321.128 716.267L345.824 716.267L345.824 691.571L321.128 691.571L321.128 716.267Z" fill="#51003A"/>
<path d="M518.7 691.571L543.397 691.571L543.397 666.874L518.7 666.874L518.7 691.571Z" fill="#006C2B"/>
<path d="M494.004 691.571L518.7 691.571L518.7 666.874L494.004 666.874L494.004 691.571Z" fill="#0D1450"/>
<path d="M419.915 691.571L444.611 691.571L444.611 666.874L419.915 666.874L419.915 691.571Z" fill="#0A1FE2"/>
<path d="M321.128 691.571L345.824 691.571L345.824 666.874L321.128 666.874L321.128 691.571Z" fill="#0A1FE2"/>
<path d="M518.7 617.478L543.397 617.478L543.397 592.675L518.7 592.675L518.7 617.478Z" fill="#FCF18F"/>
<path d="M469.308 666.875L494.004 666.875L494.004 642.178L469.308 642.178L469.308 666.875Z" fill="#840E7E"/>
<path d="M444.61 666.875L469.307 666.875L469.307 642.178L444.61 642.178L444.61 666.875Z" fill="#884515"/>
<path d="M395.217 666.875L419.914 666.875L419.914 642.178L395.217 642.178L395.217 666.875Z" fill="#510102"/>
<path d="M370.49 617.818L395.224 617.818L395.224 592.686L370.49 592.778L370.49 617.818Z" fill="#FFEC47"/>
<path d="M321.128 666.875L345.824 666.875L345.824 642.178L321.128 642.178L321.128 666.875Z" fill="#00186E"/>
<path d="M419.915 617.818L444.611 617.818L444.611 592.349L419.915 592.349L419.915 617.818Z" fill="#FB63E3"/>
<path d="M321.128 642.178L345.824 642.178L345.824 617.481L321.128 617.481L321.128 642.178Z" fill="#593B8E"/>
<path d="M469.308 617.481L494.004 617.481L494.004 592.785L469.308 592.785L469.308 617.481Z" fill="#593B8E"/>
<path d="M444.61 617.481L469.307 617.481L469.307 592.785L444.61 592.785L444.61 617.481Z" fill="#67C998"/>
<path d="M469.308 568.315L494.004 568.315L494.004 543.282L469.308 543.282L469.308 568.315Z" fill="#FB0AD5"/>
<path d="M444.61 568.079L469.307 568.079L469.307 543.282L444.61 543.282L444.61 568.079Z" fill="#FF6251"/>
<path d="M321.128 617.481L345.824 617.481L345.824 592.785L321.128 592.785L321.128 617.481Z" fill="#491747"/>
<path d="M518.7 592.785L543.397 592.785L543.397 568.088L518.7 568.088L518.7 592.785Z" fill="#606A47"/>
<path d="M543.397 617.477H518.7V642.288H543.397V617.477Z" fill="#606A47"/>
<path d="M469.308 592.785L494.004 592.785L494.004 568.088L469.308 568.088L469.308 592.785Z" fill="#006C2B"/>
<path d="M419.915 592.785L444.611 592.785L444.611 568.088L419.915 568.088L419.915 592.785Z" fill="#6B2E87"/>
<path d="M370.521 592.785L395.217 592.785L395.217 568.089L370.521 568.089L370.521 592.785Z" fill="#840E7E"/>
<path d="M321.128 592.785L345.824 592.785L345.824 568.089L321.128 568.089L321.128 592.785Z" fill="#286EF2"/>
<path d="M518.7 568.088L543.397 568.088L543.397 543.392L518.7 543.392L518.7 568.088Z" fill="#0A1FE2"/>
<path d="M419.915 568.088L444.611 568.088L444.611 543.392L419.915 543.392L419.915 568.088Z" fill="#3FB828"/>
<path d="M370.521 568.088L395.217 568.088L395.217 543.392L370.521 543.392L370.521 568.088Z" fill="#884515"/>
<path d="M716.273 543.391L740.969 543.391L740.969 518.695L716.273 518.695L716.273 543.391Z" fill="#3FB828"/>
<path d="M518.7 543.391L543.397 543.391L543.397 518.695L518.7 518.695L518.7 543.391Z" fill="#006C2B"/>
<path d="M493.982 543.391L519.026 543.391L519.026 518.695L493.982 518.695L493.982 543.391Z" fill="#FF6251"/>
<path d="M444.61 543.392L469.307 543.392L469.307 518.695L444.61 518.695L444.61 543.392Z" fill="#16DBE1"/>
<path d="M395.217 543.392L419.914 543.392L419.914 518.695L395.217 518.695L395.217 543.392Z" fill="#006C2B"/>
<path d="M370.521 543.392L395.217 543.392L395.217 518.695L370.521 518.695L370.521 543.392Z" fill="#593B8E"/>
<path d="M296.43 543.392L321.127 543.392L321.127 518.695L296.43 518.695L296.43 543.392Z" fill="#4F4F4F"/>
<path d="M271.735 543.392L296.432 543.392L296.432 518.695L271.735 518.695L271.735 543.392Z" fill="#006C2B"/>
<path d="M197.645 543.392L222.341 543.392L222.341 518.695L197.645 518.695L197.645 543.392Z" fill="#006C2B"/>
<path d="M172.949 543.392L197.645 543.392L197.645 518.695L172.949 518.695L172.949 543.392Z" fill="black"/>
<path d="M148.251 543.392L172.948 543.392L172.948 518.695L148.251 518.695L148.251 543.392Z" fill="#78CEFE"/>
<path d="M148.251 469.309L172.948 469.309L172.948 444.177L148.251 444.177L148.251 469.309Z" fill="#FFEC47"/>
<path d="M148.251 469.309L172.948 469.309L172.948 444.177L148.251 444.177L148.251 469.309Z" fill="#FFEC47"/>
<path d="M148.251 444.558L172.948 444.558L172.948 419.807L148.251 419.807L148.251 444.558Z" fill="#FD7C9A"/>
<path d="M148.251 444.558L172.948 444.558L172.948 419.807L148.251 419.807L148.251 444.558Z" fill="#FD7C9A"/>
<path d="M148.251 371.065L172.948 371.065L172.948 345.811L148.251 345.811L148.251 371.065Z" fill="#FD7C9A"/>
<path d="M148.251 371.065L172.948 371.065L172.948 345.811L148.251 345.811L148.251 371.065Z" fill="#FFA24C"/>
<path d="M148.251 320.996L172.948 321.131L172.948 296.43L148.251 296.43L148.251 320.996Z" fill="#FD7C9A"/>
<path d="M148.251 320.996L172.948 321.131L172.948 296.43L148.251 296.43L148.251 320.996Z" fill="#FB021A"/>
<path d="M148.251 296.43L172.948 296.43L172.948 271.297L148.251 271.297L148.251 296.43Z" fill="#FD7C9A"/>
<path d="M148.251 296.43L172.948 296.43L172.948 271.297L148.251 271.297L148.251 296.43Z" fill="#FD7C9A"/>
<path d="M148.251 198.185L172.948 198.185L172.948 172.292L148.251 172.292L148.251 198.185Z" fill="#FD7C9A"/>
<path d="M148.251 198.185L172.948 198.185L172.948 172.292L148.251 172.292L148.251 198.185Z" fill="#FDE400"/>
<path d="M148.251 172.943L172.948 172.943L172.948 147.921L148.251 147.921L148.251 172.943Z" fill="#FD7C9A"/>
<path d="M148.251 172.943L172.948 172.943L172.948 147.921L148.251 147.921L148.251 172.943Z" fill="#FF0A6B"/>
<path d="M543.397 518.695L568.093 518.695L568.093 493.998L543.397 493.998L543.397 518.695Z" fill="#510102"/>
<path d="M494.004 518.695L518.7 518.695L518.7 493.998L494.004 493.998L494.004 518.695Z" fill="#78CEFE"/>
<path d="M518.7 494.651L543.397 494.651V469.309L518.7 469.309L518.7 494.651Z" fill="#FFA24C"/>
<path d="M494.004 494.32L518.7 494.32L518.7 469.313L494.004 469.313L494.004 494.32Z" fill="#FCA5B5"/>
<path d="M444.61 518.695L469.307 518.695L469.307 493.998L444.61 493.998L444.61 518.695Z" fill="#286EF2"/>
<path d="M296.43 518.695L321.127 518.695L321.127 493.998L296.43 493.998L296.43 518.695Z" fill="#51003A"/>
<path d="M247.037 518.695L271.734 518.695L271.734 493.998L247.037 493.998L247.037 518.695Z" fill="#606A47"/>
<path d="M222.342 518.695L247.038 518.695L247.038 493.998L222.342 493.998L222.342 518.695Z" fill="#593B8E"/>
<path d="M197.645 518.695L222.341 518.695L222.341 493.998L197.645 493.998L197.645 518.695Z" fill="#884515"/>
<path d="M172.949 518.695L197.645 518.695L197.645 493.998L172.949 493.998L172.949 518.695Z" fill="#0A1FE2"/>
<path d="M148.251 518.695L172.948 518.695L172.948 493.999L148.251 493.999L148.251 518.695Z" fill="#491747"/>
<path d="M691.576 568.634L716.272 568.634L716.272 543.38L691.576 543.38L691.576 568.634Z" fill="#FFA24C"/>
<path d="M666.88 493.998L691.576 493.998L691.576 469.302L666.88 469.302L666.88 493.998Z" fill="#78CEFE"/>
<path d="M543.397 493.999L568.093 493.999L568.093 469.302L543.397 469.302L543.397 493.999Z" fill="#3FB828"/>
<path d="M469.308 493.999L494.004 493.999L494.004 469.302L469.308 469.302L469.308 493.999Z" fill="black"/>
<path d="M444.61 493.999L469.307 493.999L469.307 469.302L444.61 469.302L444.61 493.999Z" fill="#006C2B"/>
<path d="M419.915 493.999L444.611 493.999L444.611 469.302L419.915 469.302L419.915 493.999Z" fill="#0A1FE2"/>
<path d="M395.217 493.999L419.914 493.999L419.914 469.302L395.217 469.302L395.217 493.999Z" fill="#81ACAF"/>
<path d="M345.825 493.999L370.521 493.999L370.521 469.302L345.825 469.302L345.825 493.999Z" fill="#006C2B"/>
<path d="M345.824 543.501L370.521 543.501L370.521 518.05L345.824 518.05L345.824 543.501Z" fill="#FFA24C"/>
<path d="M296.43 493.999L321.127 493.999L321.127 469.302L296.43 469.302L296.43 493.999Z" fill="#840E7E"/>
<path d="M271.735 493.999L296.432 493.999L296.432 469.302L271.735 469.302L271.735 493.999Z" fill="#006C2B"/>
<path d="M247.037 493.999L271.734 493.999L271.734 469.302L247.037 469.302L247.037 493.999Z" fill="#46FF90"/>
<path d="M222.342 493.999L247.038 493.999L247.038 469.302L222.342 469.302L222.342 493.999Z" fill="black"/>
<path d="M247.037 568.198L271.734 568.198L271.734 543.501L247.037 543.501L247.037 568.198Z" fill="#FDE400"/>
<path d="M222.342 568.198L247.038 568.198L247.038 543.501L222.342 543.501L222.342 568.198Z" fill="#FFA24C"/>
<path d="M197.645 493.999L222.341 493.999L222.341 469.302L197.645 469.302L197.645 493.999Z" fill="#16DBE1"/>
<path d="M148.251 493.999L172.948 493.999L172.948 469.302L148.251 469.302L148.251 493.999Z" fill="#286EF2"/>
<path d="M123.555 493.999L148.252 493.999L148.252 469.302L123.555 469.302L123.555 493.999Z" fill="#884515"/>
<path d="M123.556 543.502L148.252 543.502L148.252 518.698L123.556 518.698L123.556 543.502Z" fill="#FB63E3"/>
<path d="M123.556 568.634L148.252 568.634L148.252 543.381L123.556 543.381L123.556 568.634Z" fill="#FCF18F"/>
<path d="M172.902 568.634L197.687 568.634L197.648 543.381L172.943 543.381L172.902 568.634Z" fill="#FF0A6B"/>
<path d="M271.736 568.096L296.996 568.096L296.996 543.38L271.736 543.38L271.736 568.096Z" fill="#FF69D9"/>
<path d="M296.434 568.106L321.131 568.106L321.131 543.38L296.434 543.38L296.434 568.106Z" fill="#F80302"/>
<path d="M296.435 618.579L321.131 618.579L321.131 592.686L296.435 592.686L296.435 618.579Z" fill="#FF0065"/>
<path d="M296.435 642.188L321.131 642.188L321.131 617.437L296.435 617.437L296.435 642.188Z" fill="#FED7DF"/>
<path d="M666.88 469.302L691.576 469.302L691.576 444.606L666.88 444.606L666.88 469.302Z" fill="#16DBE1"/>
<path d="M592.49 469.302L617.813 469.302L617.813 444.606L592.49 444.606L592.49 469.302Z" fill="#FCF18F"/>
<path d="M345.824 469.302L370.52 469.302L370.52 444.606L345.824 444.606L345.824 469.302Z" fill="#510102"/>
<path d="M321.128 469.302L345.824 469.302L345.824 444.606L321.128 444.606L321.128 469.302Z" fill="#491747"/>
<path d="M296.43 469.302L321.127 469.302L321.127 444.606L296.43 444.606L296.43 469.302Z" fill="#606A47"/>
<path d="M222.362 444.931L247.474 444.931L247.474 419.806L222.362 419.806L222.362 444.931Z" fill="#FCF18F"/>
<path d="M247.037 444.931L271.734 444.931L271.734 419.806L247.037 419.806L247.037 444.931Z" fill="#FCA5B5"/>
<path d="M197.645 444.931L222.341 444.931L222.341 419.806L197.645 419.806L197.645 444.931Z" fill="#FB63E3"/>
<path d="M222.362 419.8L247.474 419.8L247.474 394.674L222.362 394.674L222.362 419.8Z" fill="#FDE427"/>
<path d="M197.645 419.8L222.341 419.8L222.341 394.674L197.645 394.674L197.645 419.8Z" fill="#FED7DF"/>
<path d="M123.555 469.302L148.252 469.302L148.252 444.606L123.555 444.606L123.555 469.302Z" fill="#006C2B"/>
<path d="M716.273 444.605L740.969 444.605L740.969 419.909L716.273 419.909L716.273 444.605Z" fill="#0A1FE2"/>
<path d="M642.183 444.605L666.879 444.605L666.879 419.909L642.183 419.909L642.183 444.605Z" fill="#606A47"/>
<path d="M568.094 469.738L592.791 469.738L592.791 444.177L568.094 444.177L568.094 469.738Z" fill="#FFA24C"/>
<path d="M543.397 444.605L568.093 444.605L568.093 419.909L543.397 419.909L543.397 444.605Z" fill="#006C2B"/>
<path d="M518.7 444.605L543.397 444.605L543.397 419.909L518.7 419.909L518.7 444.605Z" fill="#510102"/>
<path d="M469.308 444.605L494.004 444.605L494.004 419.909L469.308 419.909L469.308 444.605Z" fill="#491747"/>
<path d="M419.915 444.605L444.611 444.605L444.611 419.909L419.915 419.909L419.915 444.605Z" fill="#6B2E87"/>
<path d="M345.824 444.605L370.52 444.605L370.52 419.909L345.824 419.909L345.824 444.605Z" fill="#006C2B"/>
<path d="M296.43 444.605L321.127 444.605L321.127 419.909L296.43 419.909L296.43 444.605Z" fill="black"/>
<path d="M271.735 444.605L296.432 444.605L296.432 419.909L271.735 419.909L271.735 444.605Z" fill="#3FB828"/>
<path d="M123.555 444.605L148.252 444.605L148.252 419.909L123.555 419.909L123.555 444.605Z" fill="#840E7E"/>
<path d="M716.273 419.909L740.969 419.909L740.969 395.213L716.273 395.213L716.273 419.909Z" fill="#840E7E"/>
<path d="M691.576 444.558L716.272 444.461L716.272 419.583L691.576 419.583L691.576 444.558Z" fill="#FB63E3"/>
<path d="M691.576 518.812L716.272 518.812L716.272 493.672L691.576 493.672L691.576 518.812Z" fill="#FFA24C"/>
<path d="M691.576 543.389L716.272 543.389L716.272 518.805L691.576 518.805L691.576 543.389Z" fill="#FB63E3"/>
<path d="M617.488 419.909L642.184 419.909L642.184 395.213L617.488 395.213L617.488 419.909Z" fill="black"/>
<path d="M592.789 419.909L617.486 419.909L617.486 395.213L592.789 395.213L592.789 419.909Z" fill="#78CEFE"/>
<path d="M543.397 419.909L568.093 419.909L568.093 395.213L543.397 395.213L543.397 419.909Z" fill="#46FF90"/>
<path d="M518.7 419.909L543.397 419.909L543.397 395.213L518.7 395.213L518.7 419.909Z" fill="#286EF2"/>
<path d="M370.521 419.909L395.217 419.909L395.217 395.213L370.521 395.213L370.521 419.909Z" fill="#3FB828"/>
<path d="M345.824 419.909L370.52 419.909L370.52 395.213L345.824 395.213L345.824 419.909Z" fill="#16DBE1"/>
<path d="M321.128 419.909L345.824 419.909L345.824 395.213L321.128 395.213L321.128 419.909Z" fill="#006C2B"/>
<path d="M247.037 419.909L271.734 419.909L271.734 395.213L247.037 395.213L247.037 419.909Z" fill="#78CEFE"/>
<path d="M148.251 419.909L172.948 419.909L172.948 395.213L148.251 395.213L148.251 419.909Z" fill="#67C998"/>
<path d="M716.273 395.213L740.969 395.213L740.969 370.516L716.273 370.516L716.273 395.213Z" fill="#0D1450"/>
<path d="M617.488 395.213L642.184 395.213L642.184 370.516L617.488 370.516L617.488 395.213Z" fill="#593B8E"/>
<path d="M592.789 395.213L617.486 395.213L617.486 370.516L592.789 370.516L592.789 395.213Z" fill="#006C2B"/>
<path d="M592.789 346.036L617.486 346.036L617.486 321.233L592.789 321.233L592.789 346.036Z" fill="#FDE400"/>
<path d="M617.488 321.233L642.184 321.233L642.184 296.43L617.488 296.43L617.488 321.233Z" fill="#F86EAB"/>
<path d="M592.789 321.233L617.486 321.233L617.486 296.43L592.789 296.43L592.789 321.233Z" fill="#FB63E3"/>
<path d="M568.094 395.213L592.791 395.213L592.791 370.516L568.094 370.516L568.094 395.213Z" fill="#67C998"/>
<path d="M543.397 395.213L568.093 395.213L568.093 370.516L543.397 370.516L543.397 395.213Z" fill="#0A1FE2"/>
<path d="M518.7 395.213L543.397 395.213L543.397 370.516L518.7 370.516L518.7 395.213Z" fill="#16DBE1"/>
<path d="M444.61 395.213L469.307 395.213L469.307 370.516L444.61 370.516L444.61 395.213Z" fill="black"/>
<path d="M419.915 395.213L444.611 395.213L444.611 370.516L419.915 370.516L419.915 395.213Z" fill="#006C2B"/>
<path d="M370.521 395.213L395.217 395.213L395.217 370.516L370.521 370.516L370.521 395.213Z" fill="#840E7E"/>
<path d="M345.824 395.213L370.52 395.213L370.52 370.516L345.824 370.516L345.824 395.213Z" fill="#2D5F1F"/>
<path d="M321.128 395.213L345.824 395.213L345.824 370.516L321.128 370.516L321.128 395.213Z" fill="#286EF2"/>
<path d="M296.43 395.213L321.127 395.213L321.127 370.516L296.43 370.516L296.43 395.213Z" fill="#81ACAF"/>
<path d="M247.037 395.213L271.734 395.213L271.734 370.516L247.037 370.516L247.037 395.213Z" fill="#51003A"/>
<path d="M222.342 395.213L247.038 395.213L247.038 370.516L222.342 370.516L222.342 395.213Z" fill="#006C2B"/>
<path d="M197.645 395.213L222.341 395.213L222.341 370.516L197.645 370.516L197.645 395.213Z" fill="#4F4F4F"/>
<path d="M148.251 395.213L172.948 395.213L172.948 370.516L148.251 370.516L148.251 395.213Z" fill="#006C2B"/>
<path d="M123.555 395.213L148.252 395.213L148.252 370.516L123.555 370.516L123.555 395.213Z" fill="#0A1FE2"/>
<path d="M716.273 370.516L740.969 370.516L740.969 345.82L716.273 345.82L716.273 370.516Z" fill="#884515"/>
<path d="M666.88 370.516L691.576 370.516L691.576 345.82L666.88 345.82L666.88 370.516Z" fill="#2D5F1F"/>
<path d="M592.789 370.516L617.486 370.516L617.486 345.82L592.789 345.82L592.789 370.516Z" fill="#884515"/>
<path d="M592.789 543.944L617.486 543.944L617.486 518.589L592.789 518.589L592.789 543.944Z" fill="#FED7DF"/>
<path d="M592.789 569.076L617.486 569.076L617.486 543.378L592.789 543.378L592.789 569.076Z" fill="#FB0AD5"/>
<path d="M592.789 518.589L617.486 518.589L617.486 493.892L592.789 493.892L592.789 518.589Z" fill="#FFEC47"/>
<path d="M592.789 493.892L617.486 493.892L617.486 469.196L592.789 469.196L592.789 493.892Z" fill="#FF0A6B"/>
<path d="M543.397 370.516L568.093 370.516L568.093 345.82L543.397 345.82L543.397 370.516Z" fill="#2D5F1F"/>
<path d="M518.7 370.516L543.397 370.516L543.397 345.82L518.7 345.82L518.7 370.516Z" fill="#006C2B"/>
<path d="M494.004 370.516L518.7 370.516L518.7 345.82L494.004 345.82L494.004 370.516Z" fill="#286EF2"/>
<path d="M469.308 370.516L494.004 370.516L494.004 345.82L469.308 345.82L469.308 370.516Z" fill="#006C2B"/>
<path d="M444.61 370.516L469.307 370.516L469.307 345.82L444.61 345.82L444.61 370.516Z" fill="#78CEFE"/>
<path d="M370.521 370.516L395.217 370.516L395.217 345.82L370.521 345.82L370.521 370.516Z" fill="#286EF2"/>
<path d="M345.824 370.516L370.52 370.516L370.52 345.82L345.824 345.82L345.824 370.516Z" fill="black"/>
<path d="M321.128 370.516L345.824 370.516L345.824 345.82L321.128 345.82L321.128 370.516Z" fill="#0A1FE2"/>
<path d="M247.037 370.516L271.734 370.516L271.734 345.82L247.037 345.82L247.037 370.516Z" fill="#006C2B"/>
<path d="M222.342 370.516L247.038 370.516L247.038 345.82L222.342 345.82L222.342 370.516Z" fill="#593B8E"/>
<path d="M172.949 370.516L197.645 370.516L197.645 345.82L172.949 345.82L172.949 370.516Z" fill="black"/>
<path d="M123.555 370.516L148.252 370.516L148.252 345.82L123.555 345.82L123.555 370.516Z" fill="#16DBE1"/>
<path d="M123.555 345.71L148.252 345.71L148.252 321.013L123.555 321.013L123.555 345.71Z" fill="white"/>
<path d="M123.555 321.013L148.252 321.013L148.252 296.317L123.555 296.317L123.555 321.013Z" fill="#FCF18F"/>
<path d="M716.273 345.819L740.969 345.819L740.969 321.122L716.273 321.122L716.273 345.819Z" fill="#593B8E"/>
<path d="M716.273 493.892L740.969 493.892L740.969 469.196L716.273 469.196L716.273 493.892Z" fill="#FF0A6B"/>
<path d="M716.273 469.196L740.969 469.196L740.969 444.499L716.273 444.499L716.273 469.196Z" fill="#FCF18F"/>
<path d="M666.88 321.449L691.576 321.449L691.576 296.43L666.88 296.43L666.88 321.449Z" fill="#FCF18F"/>
<path d="M642.183 321.449L666.879 321.449L666.879 296.43L642.183 296.43L642.183 321.449Z" fill="#FF6251"/>
<path d="M568.094 345.819L592.791 345.819L592.791 321.122L568.094 321.122L568.094 345.819Z" fill="#4F4F4F"/>
<path d="M543.397 345.819L568.093 345.819L568.093 321.122L543.397 321.122L543.397 345.819Z" fill="black"/>
<path d="M494.004 345.819L518.7 345.819L518.7 321.122L494.004 321.122L494.004 345.819Z" fill="#840E7E"/>
<path d="M469.308 345.819L494.004 345.819L494.004 321.122L469.308 321.122L469.308 345.819Z" fill="#46FF90"/>
<path d="M444.61 345.819L469.307 345.819L469.307 321.122L444.61 321.122L444.61 345.819Z" fill="#51003A"/>
<path d="M345.824 345.819L370.52 345.819L370.52 321.122L345.824 321.122L345.824 345.819Z" fill="#593B8E"/>
<path d="M321.128 345.819L345.824 345.819L345.824 321.122L321.128 321.122L321.128 345.819Z" fill="#0D1450"/>
<path d="M296.43 345.819L321.127 345.819L321.127 321.122L296.43 321.122L296.43 345.819Z" fill="#510102"/>
<path d="M271.735 321.562L296.432 321.562L296.432 295.99L271.735 295.99L271.735 321.562Z" fill="white"/>
<path d="M247.037 345.819L271.734 345.819L271.734 321.122L247.037 321.122L247.037 345.819Z" fill="#0D1450"/>
<path d="M222.342 345.819L247.038 345.819L247.038 321.122L222.342 321.122L222.342 345.819Z" fill="#007AD5"/>
<path d="M172.949 345.819L197.645 345.819L197.645 321.122L172.949 321.122L172.949 345.819Z" fill="#006C2B"/>
<path d="M518.7 321.123L543.397 321.123L543.397 296.426L518.7 296.426L518.7 321.123Z" fill="#006C2B"/>
<path d="M494.004 321.123L518.7 321.123L518.7 296.426L494.004 296.426L494.004 321.123Z" fill="#16DBE1"/>
<path d="M469.308 321.123L494.004 321.123L494.004 296.426L469.308 296.426L469.308 321.123Z" fill="#0BB44F"/>
<path d="M419.915 321.123L444.611 321.123L444.611 296.426L419.915 296.426L419.915 321.123Z" fill="#006C2B"/>
<path d="M395.217 321.123L419.914 321.123L419.914 296.426L395.217 296.426L395.217 321.123Z" fill="#4F4F4F"/>
<path d="M345.824 321.123L370.52 321.123L370.52 296.426L345.824 296.426L345.824 321.123Z" fill="#006C2B"/>
<path d="M321.128 321.123L345.824 321.123L345.824 296.426L321.128 296.426L321.128 321.123Z" fill="#981292"/>
<path d="M222.342 321.123L247.038 321.123L247.038 296.426L222.342 296.426L222.342 321.123Z" fill="#01A089"/>
<path d="M172.949 321.123L197.645 321.123L197.645 296.426L172.949 296.426L172.949 321.123Z" fill="#3FB828"/>
<path d="M494.004 296.426L518.7 296.426L518.7 271.73L494.004 271.73L494.004 296.426Z" fill="#0D1450"/>
<path d="M444.61 296.426L469.307 296.426L469.307 271.73L444.61 271.73L444.61 296.426Z" fill="#006C2B"/>
<path d="M321.128 296.426L345.824 296.426L345.824 271.73L321.128 271.73L321.128 296.426Z" fill="#67C998"/>
<path d="M222.342 296.426L247.038 296.426L247.038 271.73L222.342 271.73L222.342 296.426Z" fill="#593B8E"/>
<path d="M197.645 296.426L222.341 296.426L222.341 271.73L197.645 271.73L197.645 296.426Z" fill="#884515"/>
<path d="M123.555 296.426L148.252 296.426L148.252 271.729L123.555 271.729L123.555 296.426Z" fill="#006C2B"/>
<path d="M494.004 271.73L518.7 271.73L518.7 247.033L494.004 247.033L494.004 271.73Z" fill="#67C998"/>
<path d="M419.915 271.73L444.611 271.73L444.611 247.033L419.915 247.033L419.915 271.73Z" fill="#2D5F1F"/>
<path d="M395.217 271.73L419.914 271.73L419.914 247.033L395.217 247.033L395.217 271.73Z" fill="black"/>
<path d="M345.824 271.73L370.52 271.73L370.52 247.033L345.824 247.033L345.824 271.73Z" fill="#593B8E"/>
<path d="M321.128 271.73L345.824 271.73L345.824 247.033L321.128 247.033L321.128 271.73Z" fill="#0A1FE2"/>
<path d="M222.342 271.73L247.038 271.73L247.038 247.033L222.342 247.033L222.342 271.73Z" fill="#0A1FE2"/>
<path d="M148.251 271.73L172.948 271.73L172.948 247.033L148.251 247.033L148.251 271.73Z" fill="#81ACAF"/>
<path d="M123.555 271.73L148.252 271.73L148.252 247.033L123.555 247.033L123.555 271.73Z" fill="black"/>
<path d="M494.004 247.033L518.7 247.033L518.7 222.337L494.004 222.337L494.004 247.033Z" fill="#884515"/>
<path d="M469.308 247.033L494.004 247.033L494.004 222.337L469.308 222.337L469.308 247.033Z" fill="black"/>
<path d="M419.915 247.033L444.611 247.033L444.611 222.337L419.915 222.337L419.915 247.033Z" fill="#006C2B"/>
<path d="M419.915 222.556L444.611 222.556L444.611 197.204L419.915 197.204L419.915 222.556Z" fill="#FFA24C"/>
<path d="M419.915 271.73L444.611 271.73L444.611 247.033L419.915 247.033L419.915 271.73Z" fill="#2D5F1F"/>
<path d="M419.915 247.033L444.611 247.033L444.611 222.337L419.915 222.337L419.915 247.033Z" fill="#006C2B"/>
<path d="M370.521 247.033L395.217 247.033L395.217 222.337L370.521 222.337L370.521 247.033Z" fill="#78CEFE"/>
<path d="M345.824 247.033L370.52 247.033L370.52 222.337L345.824 222.337L345.824 247.033Z" fill="#46FF90"/>
<path d="M321.128 247.033L345.824 247.033L345.824 222.337L321.128 222.337L321.128 247.033Z" fill="#16DBE1"/>
<path d="M296.43 247.033L321.127 247.033L321.127 222.337L296.43 222.337L296.43 247.033Z" fill="#0D1450"/>
<path d="M271.735 272.059L296.432 272.059L296.432 246.707L271.735 246.707L271.735 272.059Z" fill="#FB021A"/>
<path d="M247.037 247.033L271.734 247.033L271.734 222.337L247.037 222.337L247.037 247.033Z" fill="black"/>
<path d="M222.342 247.033L247.038 247.033L247.038 222.337L222.342 222.337L222.342 247.033Z" fill="#006C2B"/>
<path d="M197.645 247.033L222.341 247.033L222.341 222.337L197.645 222.337L197.645 247.033Z" fill="#78CEFE"/>
<path d="M172.949 247.033L197.645 247.033L197.645 222.337L172.949 222.337L172.949 247.033Z" fill="#006C2B"/>
<path d="M148.251 247.033L172.948 247.033L172.948 222.337L148.251 222.337L148.251 247.033Z" fill="#0A1FE2"/>
<path d="M123.555 247.033L148.252 247.033L148.252 222.337L123.555 222.337L123.555 247.033Z" fill="#67C998"/>
<path d="M370.521 222.336L395.217 222.336L395.217 197.64L370.521 197.64L370.521 222.336Z" fill="#51003A"/>
<path d="M345.824 222.337L370.52 222.337L370.52 197.64L345.824 197.64L345.824 222.337Z" fill="#0A1FE2"/>
<path d="M321.128 222.337L345.824 222.337L345.824 197.64L321.128 197.64L321.128 222.337Z" fill="#006C2B"/>
<path d="M296.43 222.337L321.127 222.337L321.127 197.64L296.43 197.64L296.43 222.337Z" fill="#510102"/>
<path d="M271.735 222.337L296.431 222.337L296.431 197.64L271.735 197.64L271.735 222.337Z" fill="#0A1FE2"/>
<path d="M247.037 222.337L271.734 222.337L271.734 197.64L247.037 197.64L247.037 222.337Z" fill="#593B8E"/>
<path d="M197.645 222.337L222.341 222.337L222.341 197.64L197.645 197.64L197.645 222.337Z" fill="#0D1450"/>
<path d="M148.251 222.336L172.948 222.336L172.948 197.64L148.251 197.64L148.251 222.336Z" fill="#16DBE1"/>
<path d="M123.555 222.336L148.252 222.336L148.252 197.64L123.555 197.64L123.555 222.336Z" fill="#840E7E"/>
<path d="M494.004 197.64L518.7 197.64L518.7 172.944L494.004 172.944L494.004 197.64Z" fill="#3FB828"/>
<path d="M444.61 197.64L469.307 197.64L469.307 172.944L444.61 172.944L444.61 197.64Z" fill="#78CEFE"/>
<path d="M419.915 173.27L444.611 173.27L444.611 148.249L419.915 148.233L419.915 173.27Z" fill="#FCF18F"/>
<path d="M247.037 197.64L271.734 197.64L271.734 172.944L247.037 172.944L247.037 197.64Z" fill="#006C2B"/>
<path d="M172.949 197.64L197.645 197.64L197.645 172.944L172.949 172.944L172.949 197.64Z" fill="#78CEFE"/>
<path d="M123.555 197.64L148.252 197.64L148.252 172.944L123.555 172.944L123.555 197.64Z" fill="#006C2B"/>
<path d="M469.308 172.943L494.004 172.943L494.004 148.247L469.308 148.247L469.308 172.943Z" fill="#16DBE1"/>
<path d="M444.61 172.943L469.307 172.943L469.307 148.247L444.61 148.247L444.61 172.943Z" fill="black"/>
<path d="M370.521 172.943L395.217 172.943L395.217 148.247L370.521 148.247L370.521 172.943Z" fill="#006C2B"/>
<path d="M321.128 172.943L345.824 172.943L345.824 148.247L321.128 148.247L321.128 172.943Z" fill="#286EF2"/>
<path d="M296.43 172.943L321.127 172.943L321.127 148.247L296.43 148.247L296.43 172.943Z" fill="#840E7E"/>
<path d="M271.735 172.943L296.431 172.943L296.431 148.247L271.735 148.247L271.735 172.943Z" fill="#46FF90"/>
<path d="M247.037 172.943L271.734 172.943L271.734 148.247L247.037 148.247L247.037 172.943Z" fill="#67C998"/>
<path d="M222.342 172.943L247.038 172.943L247.038 148.247L222.342 148.247L222.342 172.943Z" fill="#81ACAF"/>
<path d="M123.555 172.943L148.252 172.943L148.252 148.247L123.555 148.247L123.555 172.943Z" fill="#51003A"/>
<path d="M518.7 172.943L543.397 172.943L543.397 148.247L518.7 148.247L518.7 172.943Z" fill="#FCF18F"/>
<path d="M518.7 197.64L543.397 197.64L543.397 172.943L518.7 172.943L518.7 197.64Z" fill="#FED7DF"/>
<path d="M518.7 222.336L543.397 222.336L543.397 197.64L518.7 197.64L518.7 222.336Z" fill="#FFA24C"/>
<path d="M518.7 247.033L543.397 247.033L543.397 222.336L518.7 222.336L518.7 247.033Z" fill="#FDE400"/>
<path d="M518.7 271.73L543.397 271.73L543.397 247.033L518.7 247.033L518.7 271.73Z" fill="#F80302"/>
<path d="M518.7 296.426L543.397 296.426L543.397 271.73L518.7 271.73L518.7 296.426Z" fill="#FB0AD5"/>
<path d="M543.423 148.247L568.12 148.247L568.12 123.55L543.423 123.55L543.423 148.247Z" fill="#FD1B1B"/>
<path d="M543.423 172.944L568.12 172.944L568.12 148.247L543.423 148.247L543.423 172.944Z" fill="#FB63E3"/>
<path d="M543.423 197.64L568.12 197.64L568.12 172.944L543.423 172.944L543.423 197.64Z" fill="white"/>
<path d="M543.423 222.337L568.12 222.337L568.12 197.64L543.423 197.64L543.423 222.337Z" fill="#FF0A6B"/>
<path d="M543.423 247.033L568.12 247.033L568.12 222.337L543.423 222.337L543.423 247.033Z" fill="#F84954"/>
<path d="M543.423 271.73L568.12 271.73L568.12 247.033L543.423 247.033L543.423 271.73Z" fill="#FD7C9A"/>
<path d="M543.423 296.426L568.12 296.426L568.12 271.73L543.423 271.73L543.423 296.426Z" fill="#FCF18F"/>
<path d="M518.7 148.247L543.397 148.247L543.397 123.55L518.7 123.55L518.7 148.247Z" fill="#840E7E"/>
<path d="M469.114 148.247L494.006 148.247L494.006 123.55L469.114 123.55L469.114 148.247Z" fill="#FF0A6B"/>
<path d="M444.617 148.247L469.301 148.247L469.114 123.55L444.617 123.55L444.617 148.247Z" fill="#FB63E3"/>
<path d="M395.217 148.246L419.914 148.246L419.914 123.55L395.217 123.55L395.217 148.246Z" fill="#0A1FE2"/>
<path d="M370.521 148.247L395.217 148.247L395.217 123.55L370.521 123.55L370.521 148.247Z" fill="#4F4F4F"/>
<path d="M321.128 148.247L345.824 148.247L345.824 123.55L321.128 123.55L321.128 148.247Z" fill="#884515"/>
<path d="M296.43 148.247L321.127 148.247L321.127 123.55L296.43 123.55L296.43 148.247Z" fill="#006C2B"/>
<path d="M221.795 148.246L247.493 148.246L247.493 123.55L221.795 123.55L221.795 148.246Z" fill="#FCF18F"/>
<path d="M197.645 148.247L222.341 148.247L222.341 123.55L197.645 123.55L197.645 148.247Z" fill="black"/>
<path d="M172.945 148.247L148.142 148.247L148.142 123.55L172.945 123.55L172.945 148.247Z" fill="#FED7DF"/>
<path d="M594.025 740.964L715.038 740.964L740.969 740.964L740.969 715.033L740.969 594.02L740.969 568.088L715.038 568.088L594.025 568.088L568.093 568.088L568.093 594.02L568.093 715.033L568.093 740.964L594.025 740.964ZM594.025 594.02L715.038 594.02L715.038 715.033L594.025 715.033L594.025 594.02Z" fill="#006C2B"/>
<path d="M149.487 740.964L270.5 740.964L296.431 740.964L296.431 715.033L296.431 594.02L296.431 568.088L270.5 568.088L149.487 568.088L123.555 568.088L123.555 594.02L123.555 715.033L123.555 740.964L149.487 740.964ZM149.487 594.02L270.5 594.02L270.5 715.033L149.487 715.033L149.487 594.02Z" fill="#006C2B"/>
<path d="M594.025 296.426L715.038 296.426L740.969 296.426L740.969 270.495L740.969 149.481L740.969 123.55L715.038 123.55L594.025 123.55L568.093 123.55L568.093 149.481L568.093 270.495L568.093 296.426L594.025 296.426ZM594.025 149.481L715.038 149.481L715.038 270.495L594.025 270.495L594.025 149.481Z" fill="#006C2B"/>
<path d="M617.486 691.571L691.576 691.571L691.576 617.481L617.486 617.481L617.486 691.571Z" fill="#006C2B"/>
<path d="M172.948 691.571L247.038 691.571L247.038 617.481L172.948 617.481L172.948 691.571Z" fill="#006C2B"/>
<path d="M617.486 247.033L691.576 247.033L691.576 172.943L617.486 172.943L617.486 247.033Z" fill="#006C2B"/>
<path d="M593.335 740.964L617.623 740.964L617.623 715.3L593.335 715.3L593.335 740.964Z" fill="#286EF2"/>
<path d="M664.842 740.964L690.735 740.964L690.735 715.3L664.842 715.3L664.842 740.964Z" fill="#3FB828"/>
<path d="M690.735 740.962L715.271 740.962L715.271 715.299L690.735 715.299L690.735 740.962Z" fill="#286EF2"/>
<path d="M617.624 740.964L641.994 740.964L641.994 715.3L617.624 715.3L617.624 740.964Z" fill="#16DBE1"/>
<path d="M641.994 740.962L666.365 740.962L666.365 715.299L641.994 715.299L641.994 740.962Z" fill="#286EF2"/>
<path d="M715.106 740.964L741 740.964L741 715.3L715.106 715.3L715.106 740.964Z" fill="#16DBE1"/>
<path d="M568.12 617.476L594.014 617.476L594.014 593.447L568.12 593.447L568.12 617.476Z" fill="#593B8E"/>
<path d="M592.491 173.053L618.385 173.053L618.385 148.682L592.491 148.682L592.491 173.053Z" fill="#FB0AD5"/>
<path d="M692.258 173.053L715.867 173.053L715.867 148.682L692.258 148.682L692.258 173.053Z" fill="#FCA5B5"/>
<path d="M690.734 222.556L715.867 222.556L715.867 197.424L690.734 197.424L690.734 222.556Z" fill="#FED7DF"/>
<path d="M594.014 270.536L619.146 270.536L619.146 245.404L594.014 245.404L594.014 270.536Z" fill="#FED7DF"/>
<path d="M594.014 221.795L618.385 221.795L618.385 197.424L594.014 197.424L594.014 221.795Z" fill="#FF0A6B"/>
<path d="M594.014 197.424L618.385 197.424L618.385 173.053L594.014 173.053L594.014 197.424Z" fill="#FCF18F"/>
<path d="M594.014 246.927L618.385 246.927L618.385 221.795L594.014 221.795L594.014 246.927Z" fill="#FB63E3"/>
<path d="M642.756 270.536L667.126 270.536L667.126 246.927L642.756 246.927L642.756 270.536Z" fill="#F84954"/>
<path d="M692.258 270.536L715.867 270.536L715.867 246.927L692.258 246.927L692.258 270.536Z" fill="#FFA24C"/>
<path d="M618.384 173.053L642.755 173.053L642.755 148.682L618.384 148.682L618.384 173.053Z" fill="#FFA24C"/>
<path d="M690.734 246.927L715.867 246.927L715.867 222.556L690.734 222.556L690.734 246.927Z" fill="#FB021A"/>
<path d="M667.126 173.815L692.258 173.815L692.258 148.683L667.126 148.683L667.126 173.815Z" fill="#FCF18F"/>
<path d="M618.384 270.536L642.755 270.536L642.755 246.927L618.384 246.927L618.384 270.536Z" fill="#FDE400"/>
<path d="M690.734 197.424L715.867 197.424L715.867 173.053L690.734 173.053L690.734 197.424Z" fill="#FDE400"/>
<path d="M594.699 295.668L715.182 295.668L741 295.668L741 269.85L741 149.368L741 123.55L715.182 123.55L594.699 123.55L568.882 123.55L568.882 149.368L568.882 269.85L568.882 295.668L594.699 295.668ZM594.699 149.368L715.182 149.368L715.182 269.85L594.699 269.85L594.699 149.368Z" fill="#006C2B"/>
<path d="M568.882 272.059L592.491 272.059L592.491 246.927L568.882 246.927L568.882 272.059Z" fill="#16DBE1"/>
<path d="M568.882 246.927L592.491 246.927L592.491 221.795L568.882 221.795L568.882 246.927Z" fill="#00186E"/>
<path d="M715.867 246.927L741 246.927L741 222.556L715.867 222.556L715.867 246.927Z" fill="#00186E"/>
<path d="M568.882 221.795L592.491 221.795L592.491 197.424L568.882 197.424L568.882 221.795Z" fill="#46FF90"/>
<path d="M717.39 222.556L741 222.556L741 197.424L717.39 197.424L717.39 222.556Z" fill="#46FF90"/>
<path d="M568.882 197.424L592.491 197.424L592.491 173.053L568.882 173.053L568.882 197.424Z" fill="#510102"/>
<path d="M717.39 197.424L741 197.424L741 173.053L717.39 173.053L717.39 197.424Z" fill="#3FB828"/>
<path d="M568.882 173.053L592.491 173.053L592.491 147.159L568.882 147.159L568.882 173.053Z" fill="#78CEFE"/>
<path d="M715.867 173.053L741 173.053L741 147.159L715.867 147.159L715.867 173.053Z" fill="#593B8E"/>
<path d="M618.384 246.927L692.258 246.927L692.258 173.053L618.384 173.053L618.384 246.927Z" fill="black"/>
<path d="M642.756 221.795L666.365 221.795L666.365 197.424L642.756 197.424L642.756 221.795Z" fill="#696969"/>
<path d="M667.126 197.424L692.258 197.424L692.258 173.053L667.126 173.053L667.126 197.424Z" fill="#593B8E"/>
<path d="M618.384 246.927L642.755 246.927L642.755 221.795L618.384 221.795L618.384 246.927Z" fill="#0A1FE2"/>
<path d="M717.39 295.668L741 295.668L741 270.536L717.39 270.536L717.39 295.668Z" fill="#78CEFE"/>
<path d="M717.39 148.682L741 148.682L741 123.55L717.39 123.55L717.39 148.682Z" fill="#006C2B"/>
<path d="M667.126 246.927L692.258 246.927L692.258 221.795L667.126 221.795L667.126 246.927Z" fill="#286EF2"/>
<path d="M667.126 221.795L692.258 221.795L692.258 197.424L667.126 197.424L667.126 221.795Z" fill="#81012F"/>
<path d="M642.756 197.424L666.365 197.424L666.365 173.053L642.756 173.053L642.756 197.424Z" fill="#78CEFE"/>
<path d="M618.384 197.424L642.755 197.424L642.755 173.053L618.384 173.053L618.384 197.424Z" fill="#46FF90"/>
<path d="M618.384 221.795L642.755 221.795L642.755 197.424L618.384 197.424L618.384 221.795Z" fill="#16DBE1"/>
<path d="M568.882 295.668L592.491 295.668L592.491 272.059L568.882 272.059L568.882 295.668Z" fill="#696969"/>
<path d="M568.882 147.159L592.491 147.159L592.491 123.55L568.882 123.55L568.882 147.159Z" fill="#696969"/>
<path d="M592.491 295.668L618.385 295.668L618.385 270.536L592.491 270.536L592.491 295.668Z" fill="#593B8E"/>
<path d="M592.491 148.682L618.385 148.682L618.385 123.55L592.491 123.55L592.491 148.682Z" fill="#593B8E"/>
<path d="M618.384 295.668L642.755 295.668L642.755 270.536L618.384 270.536L618.384 295.668Z" fill="#0D1450"/>
<path d="M618.384 148.682L642.755 148.682L642.755 123.55L618.384 123.55L618.384 148.682Z" fill="#0D1450"/>
<path d="M642.756 295.668L667.126 295.668L667.126 270.536L642.756 270.536L642.756 295.668Z" fill="#981292"/>
<path d="M642.756 148.682L667.126 148.682L667.126 123.55L642.756 123.55L642.756 148.682Z" fill="#981292"/>
<path d="M667.126 295.668L692.258 295.668L692.258 270.536L667.126 270.536L667.126 295.668Z" fill="#46FF90"/>
<path d="M667.126 148.682L692.258 148.682L692.258 123.55L667.126 123.55L667.126 148.682Z" fill="#46FF90"/>
<path d="M692.351 296.054L715.663 296.054L715.663 270.411L692.351 270.411L692.351 296.054Z" fill="#007AD5"/>
<path d="M692.258 148.682L717.391 148.682L717.391 123.55L692.258 123.55L692.258 148.682Z" fill="#007AD5"/>
<path d="M717.39 272.82L741 272.82L741 247.688L717.39 247.688L717.39 272.82Z" fill="#0A1FE2"/>
<path d="M617.623 592.685L641.994 592.685L641.994 569.076L617.623 569.076L617.623 592.685Z" fill="#0D1450"/>
<path d="M641.994 666.94L666.365 666.94L666.365 642.189L641.994 642.189L641.994 666.94Z" fill="#696969"/>
<path d="M666.364 643.712L691.497 643.712L691.497 617.818L666.364 617.818L666.364 643.712Z" fill="#593B8E"/>
<path d="M568.12 667.321L594.014 667.321L594.014 642.189L568.12 642.189L568.12 667.321Z" fill="#981292"/>
<path d="M716.248 594.209L741 594.209L741 568.315L716.248 568.315L716.248 594.209Z" fill="#2D5F1F"/>
<path d="M715.106 643.712L741 643.712L741 617.818L715.106 617.818L715.106 643.712Z" fill="#0A1FE2"/>
<path d="M715.106 691.691L741 691.691L741 667.321L715.106 667.321L715.106 691.691Z" fill="#67C998"/>
<path d="M715.106 617.818L741 617.818L741 593.994L715.106 593.994L715.106 617.818Z" fill="#696969"/>
<path d="M666.364 691.691L691.497 691.691L691.497 667.32L666.364 667.32L666.364 691.691Z" fill="#286EF2"/>
<path d="M666.364 667.321L691.497 667.321L691.497 643.712L666.364 643.712L666.364 667.321Z" fill="#51003A"/>
<path d="M641.994 642.188L666.365 642.188L666.365 617.818L641.994 617.818L641.994 642.188Z" fill="#78CEFE"/>
<path d="M617.623 642.188L641.994 642.188L641.994 617.818L617.623 617.818L617.623 642.188Z" fill="#46FF90"/>
<path d="M617.622 667.321L641.993 667.321L641.993 642.189L617.622 642.189L617.622 667.321Z" fill="#16DBE1"/>
<path d="M568.12 593.447L594.775 593.447L594.775 568.315L568.12 568.315L568.12 593.447Z" fill="black"/>
<path d="M594.014 594.209L617.623 594.209L617.623 568.315L594.014 568.315L594.014 594.209Z" fill="#007AD5"/>
<path d="M617.623 594.209L642.755 594.209L642.755 568.315L617.623 568.315L617.623 594.209Z" fill="#0D1450"/>
<path d="M642.756 594.209L667.126 594.209L667.126 568.315L642.756 568.315L642.756 594.209Z" fill="#981292"/>
<path d="M666.364 594.209L691.497 594.209L691.497 568.315L666.364 568.315L666.364 594.209Z" fill="#46FF90"/>
<path d="M715.106 667.321L741 667.321L741 643.712L715.106 643.712L715.106 667.321Z" fill="#46FF90"/>
<path d="M246.732 617.818L270.942 617.818L271.103 593.447L246.732 593.447L246.732 617.818Z" fill="#FB0AD5"/>
<path d="M197.99 667.321L222.361 667.321L222.361 642.95L197.99 642.95L197.99 667.321Z" fill="#696969"/>
<path d="M223.123 641.427L246.732 641.427L246.732 617.818L223.123 617.818L223.123 641.427Z" fill="#593B8E"/>
<path d="M172.951 691.572L197.991 691.572L197.991 667.321L172.951 667.321L172.951 691.572Z" fill="#981292"/>
<path d="M124.116 741L149.249 741L149.249 715.3L124.116 715.3L124.116 741Z" fill="#0A1FE2"/>
<path d="M270.341 717.585L296.235 717.585L296.235 691.691L270.341 691.691L270.341 717.585Z" fill="#696969"/>
<path d="M124.116 715.301L149.249 715.301L149.249 691.691L124.116 691.691L124.116 715.301Z" fill="#78CEFE"/>
<path d="M270.341 667.321L296.235 667.321L296.235 642.189L270.341 642.189L270.341 667.321Z" fill="#2D5F1F"/>
<path d="M124.116 691.691L149.249 691.691L149.249 667.32L124.116 667.32L124.116 691.691Z" fill="#884515"/>
<path d="M123.573 667.321L149.485 667.321L149.485 642.95L123.573 642.95L123.573 667.321Z" fill="#981292"/>
<path d="M271.103 642.188L296.235 642.188L296.235 617.818L271.103 617.818L271.103 642.188Z" fill="#46FF90"/>
<path d="M124.116 642.95L149.249 642.95L149.249 617.818L124.116 617.818L124.116 642.95Z" fill="#006C2B"/>
<path d="M223.884 691.566L246.732 691.566L246.732 667.321L223.884 667.321L223.884 691.566Z" fill="#286EF2"/>
<path d="M223.123 667.321L246.732 667.321L246.732 642.95L223.123 642.95L223.123 667.321Z" fill="#51003A"/>
<path d="M197.99 642.95L223.123 642.95L223.123 617.818L197.99 617.818L197.99 642.95Z" fill="#78CEFE"/>
<path d="M172.858 642.95L197.991 642.95L197.991 617.818L172.858 617.818L172.858 642.95Z" fill="#46FF90"/>
<path d="M172.858 667.321L197.991 667.321L197.991 642.95L172.858 642.95L172.858 667.321Z" fill="#16DBE1"/>
<path d="M123.56 594.031L148.249 594.031L148.249 568.089L123.56 568.089L123.56 594.031Z" fill="#696969"/>
<path d="M271.103 617.818L296.235 617.818L296.235 592.686L271.103 592.686L271.103 617.818Z" fill="#67C998"/>
<path d="M123.559 617.818L149.482 617.818L149.482 594.031L123.559 594.031L123.559 617.818Z" fill="#67C998"/>
<path d="M197.671 594.04L222.361 594.04L222.361 568.071L197.671 568.071L197.671 594.04Z" fill="#0A1FE2"/>
<path d="M197.99 740.962L223.884 740.977L223.884 715.301L197.99 715.301L197.99 740.962Z" fill="#00186E"/>
<path d="M172.859 594.018L197.69 594.018L197.69 568.124L172.859 568.124L172.859 594.018Z" fill="#286EF2"/>
<path d="M148.245 594.034L172.901 593.969L172.901 568.091L148.245 568.091L148.245 594.034Z" fill="#3FB828"/>
<path d="M149.249 740.962L173.62 740.962L173.62 715.301L149.249 715.301L149.249 740.962Z" fill="#3FB828"/>
<path d="M245.97 593.447L271.864 593.447L271.863 568.315L245.97 568.315L245.97 593.447Z" fill="#981292"/>
<path d="M246.732 740.971L270.341 740.971L270.341 715.3L246.732 715.3L246.732 740.971Z" fill="#981292"/>
<path d="M222.361 594.026L246.503 594.026L246.503 568.085L222.361 568.085L222.361 594.026Z" fill="#0D1450"/>
<path d="M223.884 740.971L246.732 740.971L246.732 715.3L223.884 715.3L223.884 740.971Z" fill="#286EF2"/>
<path d="M173.62 740.962L197.991 740.962L197.991 715.301L173.62 715.301L173.62 740.962Z" fill="#884515"/>
<path d="M123.555 148.247L148.252 148.247L148.252 123.55L123.555 123.55L123.555 148.247Z" fill="#3FB828"/>
<path d="M270.34 740.964L296.321 740.964L296.321 716.268L270.34 716.268L270.34 740.964Z" fill="#00186E"/>
<path d="M270.341 691.691L296.235 691.691L296.235 666.939L270.341 666.939L270.341 691.691Z" fill="#593B8E"/>
<path d="M370.489 691.571L395.217 691.571L395.217 666.794L370.489 666.871L370.489 691.571Z" fill="#FEF600"/>
<path d="M370.489 666.94L395.217 666.94L395.217 642.189L370.489 642.189L370.489 666.94Z" fill="#FF0A6B"/>
<path d="M370.49 642.188H395.224L395.224 617.437L370.49 617.437L370.49 642.188Z" fill="#F80302"/>
<path d="M345.824 666.875L370.52 666.875L370.52 642.178L345.824 642.178L345.824 666.875Z" fill="#16DBE1"/>
<path d="M419.915 642.178L444.611 642.178L444.611 617.481L419.915 617.481L419.915 642.178Z" fill="#0D1450"/>
<path d="M345.824 568.092L370.52 568.092L370.52 543.502L345.824 543.502L345.824 568.092Z" fill="#FB63E3"/>
<path d="M345.824 518.695L370.52 518.695L370.52 493.998L345.824 493.998L345.824 518.695Z" fill="black"/>
<path d="M518.7 666.875L543.397 666.875L543.397 642.178L518.7 642.178L518.7 666.875Z" fill="#3FB828"/>
<path d="M691.576 593.989L716.272 593.989L716.272 568.058L691.576 568.058L691.576 593.989Z" fill="#286EF2"/>
<path d="M568.12 691.691L594.014 691.691L594.014 666.871L568.12 666.871L568.12 691.691Z" fill="#884515"/>
<path d="M568.12 716.824L594.014 716.824L594.014 691.574L568.12 691.574L568.12 716.824Z" fill="#78CEFE"/>
<path d="M617.622 691.691L641.993 691.691L641.993 666.939L617.622 666.812L617.622 691.691Z" fill="#0A1FE2"/>
<path d="M568.12 740.964L594.014 740.964L594.014 716.257L568.12 716.257L568.12 740.964Z" fill="#0D1450"/>
<path d="M691.576 493.998L716.272 493.998L716.272 469.302L691.576 469.302L691.576 493.998Z" fill="#884515"/>
<path d="M691.576 419.909L716.272 419.909L716.272 395.213L691.576 395.213L691.576 419.909Z" fill="#51003A"/>
<path d="M666.88 345.819L691.576 345.819L691.576 321.122L666.88 321.122L666.88 345.819Z" fill="#0A1FE2"/>
<path d="M642.183 345.819L666.879 345.819L666.879 321.122L642.183 321.122L642.183 345.819Z" fill="#3FB828"/>
<path d="M642.183 395.435L666.879 395.435L666.879 370.516L642.183 370.516L642.183 395.435Z" fill="#FFA24C"/>
<path d="M642.183 419.913L666.879 419.913L666.879 395.199L642.183 395.199L642.183 419.913Z" fill="#F0592D"/>
<path d="M568.094 444.605L592.791 444.605L592.791 419.909L568.094 419.909L568.094 444.605Z" fill="#51003A"/>
<path d="M568.094 493.999L592.791 493.999L592.791 469.302L568.094 469.302L568.094 493.999Z" fill="#006C2B"/>
<path d="M271.735 247.033L296.431 247.033L296.431 222.337L271.735 222.337L271.735 247.033Z" fill="#46FF90"/>
<path d="M271.735 296.426L296.432 296.426L296.432 271.73L271.735 271.73L271.735 296.426Z" fill="#286EF2"/>
<path d="M271.735 345.819L296.432 345.819L296.432 321.122L271.735 321.122L271.735 345.819Z" fill="#491747"/>
<path d="M247.038 148.247L271.951 148.247L271.951 123.55L247.038 123.55L247.038 148.247Z" fill="#FB0AD5"/>
<path d="M271.735 148.246L296.431 148.246L296.431 123.55L271.735 123.55L271.735 148.246Z" fill="#78CEFE"/>
<path d="M222.362 469.302L247.474 469.302L247.474 444.606L222.362 444.606L222.362 469.302Z" fill="#FB0AD5"/>
<path d="M247.037 469.302L271.734 469.302L271.734 444.606L247.037 444.606L247.037 469.302Z" fill="#006C2B"/>
<path d="M197.645 469.302L222.341 469.302L222.341 444.606L197.645 444.606L197.645 469.302Z" fill="#0D1450"/>
<path d="M617.488 469.302L642.184 469.302L642.184 444.606L617.488 444.606L617.488 469.302Z" fill="black"/>
<path d="M617.488 494.435L642.184 494.435L642.184 469.309L617.488 469.309L617.488 494.435Z" fill="white"/>
<path d="M617.488 518.812L642.184 518.812L642.184 493.998L617.488 493.998L617.488 518.812Z" fill="#840E7E"/>
<path d="M568.094 543.391L592.791 543.391L592.791 518.695L568.094 518.695L568.094 543.391Z" fill="#81ACAF"/>
<path d="M395.241 370.516L419.924 370.516L419.924 345.796L395.241 345.82L395.241 370.516Z" fill="#FB021A"/>
<path d="M419.915 197.64L444.611 197.64L444.611 172.944L419.915 172.944L419.915 197.64Z" fill="#006C2B"/>
<path d="M395.217 25.2454L419.914 25.2454L419.914 0.11311L395.217 0.113107L395.217 25.2454Z" fill="#FCF18F"/>
<path d="M493.485 25.0226L519.026 25.0226L519.026 0.326014L493.485 0.326011L493.485 25.0226Z" fill="#FCF18F"/>
<path d="M469.307 24.6965L494.004 24.6965L494.004 0.32197L469.307 0.32197L469.307 24.6965Z" fill="#FB0AD5"/>
<path d="M493.484 50.7424L519.136 50.7424L519.136 24.5935L493.484 24.5935L493.484 50.7424Z" fill="#FB021A"/>
<path d="M443.982 50.7424L469.743 50.7424L469.743 24.5935L443.982 24.5935L443.982 50.7424Z" fill="#FF0A6B"/>
<path d="M395.217 51.9009L419.914 51.9009L419.914 25.0231L395.217 25.0231L395.217 51.9009Z" fill="#FB0AD5"/>
<path d="M469.307 50.7424L494.004 50.7424L494.004 24.5935L469.307 24.5935L469.307 50.7424Z" fill="white"/>
<path d="M419.915 50.7423L444.611 50.7423L444.611 24.5934L419.915 24.5934L419.915 50.7423Z" fill="#FD7C9A"/>
<path d="M494.004 100.295L518.701 100.295L518.701 73.9915L494.004 73.9915L494.004 100.295Z" fill="#FB63E3"/>
<path d="M493.484 74.4155L519.136 74.4155L519.136 49.7189L493.484 49.7189L493.484 74.4155Z" fill="#FDE400"/>
<path d="M518.701 100.642L543.397 100.642V73.9871L518.701 73.9871L518.701 100.642Z" fill="#FF0A6B"/>
<path d="M543.397 99.957L568.093 99.957L568.093 73.9802L543.397 73.9802L543.397 99.957Z" fill="#FCF18F"/>
<path d="M641.747 123.808L667.887 123.808L667.887 99.1119L641.747 99.1119L641.747 123.808Z" fill="#FD7C9A"/>
<path d="M641.747 99.1123L667.887 99.1123L667.887 74.4157L641.747 74.4157L641.747 99.1123Z" fill="#FFA24C"/>
<path d="M444.611 99.8807L469.307 99.8807L469.307 73.98L444.611 73.98L444.611 99.8807Z" fill="#FD1B1B"/>
<path d="M443.982 74.4155L469.743 74.4155L469.743 49.7189L443.982 49.7189L443.982 74.4155Z" fill="#FB63E3"/>
<path d="M370.085 75.51L395.241 75.51L395.241 49.6093L370.085 49.6093L370.085 75.51Z" fill="#FB0AD5"/>
<path d="M395.217 75.51L419.914 75.51L419.914 49.6093L395.217 49.6093L395.217 75.51Z" fill="#FF6251"/>
<path d="M370.085 99.8806L395.241 99.8806L395.241 74.4181L370.085 74.4181L370.085 99.8806Z" fill="#FCF18F"/>
<path d="M469.307 99.8807L494.004 99.8807L494.004 73.98L469.307 73.98L469.307 99.8807Z" fill="black"/>
<path d="M419.915 99.8807L444.611 99.8807L444.611 73.98L419.915 73.98L419.915 99.8807Z" fill="#FFA24C"/>
<path d="M395.217 99.8806L419.914 99.8806L419.914 74.4122L395.217 74.4122L395.217 99.8806Z" fill="#FED7DF"/>
<path d="M172.512 49.6094L197.99 49.6094L197.99 24.4839L172.512 24.4839L172.512 49.6094Z" fill="#FF0A6B"/>
<path d="M172.858 25.0226L198.081 25.0226L198.081 0.326014L172.858 0.326011L172.858 25.0226Z" fill="white"/>
<path d="M172.512 74.7416L197.99 74.7416L197.99 49.6161L172.512 49.6161L172.512 74.7416Z" fill="#FFA24C"/>
<path d="M271.409 25.0226L296.997 25.0226L296.997 0.326014L271.409 0.326011L271.409 25.0226Z" fill="#FF0A6B"/>
<path d="M617.488 74.8514L642.185 74.8514L642.185 49.6162L617.488 49.6162L617.488 74.8514Z" fill="#FCA5B5"/>
<path d="M592.79 74.8514L617.487 74.8514L617.487 49.6162L592.79 49.6162L592.79 74.8514Z" fill="#F86EAB"/>
<path d="M568.12 49.7191L592.899 49.7191L592.899 25.0225L568.12 25.0225L568.12 49.7191Z" fill="#FDE400"/>
<path d="M666.444 25.3485L692.258 25.3485L692.258 0.113251L666.444 0.113249L666.444 25.3485Z" fill="#FED7DF"/>
<path d="M666.444 74.3678L692.258 74.2715L692.258 49.3934L666.444 49.3934L666.444 74.3678Z" fill="#FDE400"/>
<path d="M666.444 49.7191L692.258 49.7191L692.258 25.0225L666.444 25.0225L666.444 49.7191Z" fill="#FF0A6B"/>
<path d="M691.576 25.3485L716.273 25.3485L716.273 0.113251L691.576 0.113249L691.576 25.3485Z" fill="#FB0AD5"/>
<path d="M691.576 99.119L716.273 99.119L716.273 73.9797L691.576 73.9797L691.576 99.119Z" fill="#FFA24C"/>
<path d="M172.512 123.809L197.99 123.809L197.99 99.1125L172.512 99.1125L172.512 123.809Z" fill="#FB63E3"/>
<path d="M172.512 99.1125L197.99 99.1125L197.99 74.416L172.512 74.416L172.512 99.1125Z" fill="#FF6251"/>
<path d="M370.085 123.809L395.241 123.809L395.241 99.1124L370.085 99.1124L370.085 123.809Z" fill="#FF0A6B"/>
<path d="M320.606 123.809L346.26 123.809L346.26 99.1124L320.606 99.1124L320.606 123.809Z" fill="#FCF18F"/>
<path d="M123.556 50.3778L148.252 50.3778L148.252 24.5868L123.556 24.5868L123.556 50.3778Z" fill="#F84954"/>
<path d="M148.252 99.1195L172.948 99.1195L172.948 73.9873L148.252 73.9873L148.252 99.1195Z" fill="#FFEC47"/>
<path d="M148.252 99.1195L172.948 99.1195L172.948 73.9873L148.252 73.9873L148.252 99.1195Z" fill="#FFEC47"/>
<path d="M148.252 74.3678L172.948 74.3678L172.948 49.6163L148.252 49.6163L148.252 74.3678Z" fill="#FD7C9A"/>
<path d="M148.252 74.3678L172.948 74.3678L172.948 49.6163L148.252 49.6163L148.252 74.3678Z" fill="#FD7C9A"/>
<path d="M518.701 124.461L543.397 124.461V99.1193L518.701 99.1193L518.701 124.461Z" fill="#FFA24C"/>
<path d="M494.004 124.13L518.701 124.13L518.701 99.123L494.004 99.123L494.004 124.13Z" fill="#FCA5B5"/>
<path d="M666.88 123.808L691.577 123.808L691.577 99.1119L666.88 99.1119L666.88 123.808Z" fill="#78CEFE"/>
<path d="M543.397 123.809L568.093 123.809L568.093 99.1125L543.397 99.1125L543.397 123.809Z" fill="#3FB828"/>
<path d="M469.307 123.809L494.004 123.809L494.004 99.1125L469.307 99.1125L469.307 123.809Z" fill="black"/>
<path d="M444.611 123.809L469.307 123.809L469.307 99.1125L444.611 99.1125L444.611 123.809Z" fill="#006C2B"/>
<path d="M419.915 123.809L444.611 123.809L444.611 99.1124L419.915 99.1124L419.915 123.809Z" fill="#0A1FE2"/>
<path d="M395.217 123.809L419.914 123.809L419.914 99.1124L395.217 99.1124L395.217 123.809Z" fill="#81ACAF"/>
<path d="M345.824 123.809L370.521 123.809L370.521 99.112L345.824 99.112L345.824 123.809Z" fill="#006C2B"/>
<path d="M296.431 123.809L321.128 123.809L321.128 99.1124L296.431 99.1124L296.431 123.809Z" fill="#840E7E"/>
<path d="M271.735 123.809L296.431 123.809L296.431 99.1124L271.735 99.1124L271.735 123.809Z" fill="#006C2B"/>
<path d="M247.038 123.809L271.734 123.809L271.734 99.1124L247.038 99.1124L247.038 123.809Z" fill="#46FF90"/>
<path d="M222.342 123.809L247.039 123.809L247.039 99.1125L222.342 99.1125L222.342 123.809Z" fill="black"/>
<path d="M197.645 123.809L222.341 123.809L222.341 99.1125L197.645 99.1125L197.645 123.809Z" fill="#16DBE1"/>
<path d="M148.252 123.809L172.948 123.809L172.948 99.1125L148.252 99.1125L148.252 123.809Z" fill="#286EF2"/>
<path d="M123.556 123.809L148.252 123.809L148.252 99.1125L123.556 99.1125L123.556 123.809Z" fill="#884515"/>
<path d="M666.88 99.1123L691.577 99.1123L691.577 74.4157L666.88 74.4157L666.88 99.1123Z" fill="#16DBE1"/>
<path d="M592.49 99.1125L617.813 99.1125L617.813 74.416L592.49 74.416L592.49 99.1125Z" fill="#FCF18F"/>
<path d="M345.824 99.1123L370.521 99.1123L370.521 74.4157L345.824 74.4157L345.824 99.1123Z" fill="#510102"/>
<path d="M321.128 99.1123L345.825 99.1123L345.825 74.4157L321.128 74.4157L321.128 99.1123Z" fill="#491747"/>
<path d="M296.431 99.1123L321.128 99.1123L321.128 74.4157L296.431 74.4157L296.431 99.1123Z" fill="#606A47"/>
<path d="M222.362 74.7416L247.475 74.7416L247.475 49.6161L222.362 49.6161L222.362 74.7416Z" fill="#FCF18F"/>
<path d="M247.038 74.7416L271.734 74.7416L271.734 49.6161L247.038 49.6161L247.038 74.7416Z" fill="#FCA5B5"/>
<path d="M197.645 74.7416L222.341 74.7416L222.341 49.6161L197.645 49.6161L197.645 74.7416Z" fill="#FB63E3"/>
<path d="M222.362 49.6094L247.475 49.6094L247.475 24.4839L222.362 24.4839L222.362 49.6094Z" fill="#FDE427"/>
<path d="M197.645 49.6094L222.341 49.6094L222.341 24.4839L197.645 24.4839L197.645 49.6094Z" fill="#FED7DF"/>
<path d="M123.556 99.1125L148.252 99.1125L148.252 74.416L123.556 74.416L123.556 99.1125Z" fill="#006C2B"/>
<path d="M716.273 74.4154L740.97 74.4154L740.97 49.7188L716.273 49.7188L716.273 74.4154Z" fill="#0A1FE2"/>
<path d="M642.183 74.4154L666.879 74.4154L666.879 49.7188L642.183 49.7188L642.183 74.4154Z" fill="#606A47"/>
<path d="M568.094 99.5478L592.791 99.5479L592.791 73.9868L568.094 73.9868L568.094 99.5478Z" fill="#FFA24C"/>
<path d="M543.397 74.4155L568.093 74.4155L568.093 49.7189L543.397 49.7189L543.397 74.4155Z" fill="#006C2B"/>
<path d="M518.701 74.4155L543.397 74.4155L543.397 49.7189L518.701 49.7189L518.701 74.4155Z" fill="#510102"/>
<path d="M469.307 74.4155L494.004 74.4155L494.004 49.7189L469.307 49.7189L469.307 74.4155Z" fill="#491747"/>
<path d="M419.915 74.4154L444.611 74.4154L444.611 49.7188L419.915 49.7188L419.915 74.4154Z" fill="#6B2E87"/>
<path d="M345.824 74.4154L370.521 74.4154L370.521 49.7188L345.824 49.7188L345.824 74.4154Z" fill="#006C2B"/>
<path d="M296.431 74.4154L321.128 74.4154L321.128 49.7188L296.431 49.7188L296.431 74.4154Z" fill="black"/>
<path d="M271.735 74.4154L296.431 74.4154L296.431 49.7188L271.735 49.7188L271.735 74.4154Z" fill="#3FB828"/>
<path d="M123.556 74.4155L148.252 74.4155L148.252 49.7189L123.556 49.7189L123.556 74.4155Z" fill="#840E7E"/>
<path d="M716.273 49.7191L740.97 49.7191L740.97 25.0225L716.273 25.0225L716.273 49.7191Z" fill="#840E7E"/>
<path d="M691.576 74.3678L716.273 74.2715L716.273 49.3934L691.576 49.3934L691.576 74.3678Z" fill="#FB63E3"/>
<path d="M617.488 49.7191L642.185 49.7191L642.185 25.0225L617.488 25.0225L617.488 49.7191Z" fill="black"/>
<path d="M592.79 49.7191L617.487 49.7191L617.487 25.0225L592.79 25.0225L592.79 49.7191Z" fill="#78CEFE"/>
<path d="M543.397 49.7191L568.093 49.7191L568.093 25.0225L543.397 25.0225L543.397 49.7191Z" fill="#46FF90"/>
<path d="M518.701 49.7191L543.397 49.7191L543.397 25.0225L518.701 25.0225L518.701 49.7191Z" fill="#286EF2"/>
<path d="M370.521 49.7191L395.217 49.7191L395.217 25.0225L370.521 25.0225L370.521 49.7191Z" fill="#3FB828"/>
<path d="M345.824 49.7191L370.521 49.7191L370.521 25.0225L345.824 25.0225L345.824 49.7191Z" fill="#16DBE1"/>
<path d="M321.128 49.7191L345.825 49.7191L345.825 25.0225L321.128 25.0225L321.128 49.7191Z" fill="#006C2B"/>
<path d="M247.038 49.7191L271.734 49.7191L271.734 25.0225L247.038 25.0225L247.038 49.7191Z" fill="#78CEFE"/>
<path d="M148.252 49.7191L172.948 49.7191L172.948 25.0225L148.252 25.0225L148.252 49.7191Z" fill="#67C998"/>
<path d="M716.273 25.0226L740.97 25.0226L740.97 0.326014L716.273 0.326011L716.273 25.0226Z" fill="#0D1450"/>
<path d="M617.488 25.0226L642.185 25.0226L642.185 0.326014L617.488 0.326011L617.488 25.0226Z" fill="#593B8E"/>
<path d="M592.79 25.0226L617.487 25.0226L617.487 0.326014L592.79 0.326011L592.79 25.0226Z" fill="#006C2B"/>
<path d="M568.094 25.0226L592.791 25.0226L592.791 0.326014L568.094 0.326011L568.094 25.0226Z" fill="#67C998"/>
<path d="M543.397 25.0226L568.093 25.0226L568.093 0.326014L543.397 0.326011L543.397 25.0226Z" fill="#0A1FE2"/>
<path d="M518.701 25.0226L543.397 25.0226L543.397 0.326014L518.701 0.326011L518.701 25.0226Z" fill="#16DBE1"/>
<path d="M444.611 25.0226L469.307 25.0226L469.307 0.326014L444.611 0.326011L444.611 25.0226Z" fill="black"/>
<path d="M419.915 25.0226L444.611 25.0226L444.611 0.326014L419.915 0.326011L419.915 25.0226Z" fill="#006C2B"/>
<path d="M370.521 25.0226L395.217 25.0226L395.217 0.326014L370.521 0.326011L370.521 25.0226Z" fill="#840E7E"/>
<path d="M345.824 25.0226L370.521 25.0226L370.521 0.326014L345.824 0.326011L345.824 25.0226Z" fill="#2D5F1F"/>
<path d="M321.128 25.0226L345.825 25.0226L345.825 0.326014L321.128 0.326011L321.128 25.0226Z" fill="#286EF2"/>
<path d="M296.431 25.0226L321.128 25.0226L321.128 0.326014L296.431 0.326011L296.431 25.0226Z" fill="#81ACAF"/>
<path d="M247.038 25.0226L271.734 25.0226L271.734 0.326014L247.038 0.326011L247.038 25.0226Z" fill="#51003A"/>
<path d="M222.342 25.0226L247.039 25.0226L247.039 0.326014L222.342 0.326011L222.342 25.0226Z" fill="#006C2B"/>
<path d="M197.645 25.0226L222.341 25.0226L222.341 0.326014L197.645 0.326011L197.645 25.0226Z" fill="#4F4F4F"/>
<path d="M148.252 25.0226L172.948 25.0226L172.948 0.326014L148.252 0.326011L148.252 25.0226Z" fill="#006C2B"/>
<path d="M123.556 25.0226L148.252 25.0226L148.252 0.326014L123.556 0.326011L123.556 25.0226Z" fill="#0A1FE2"/>
<path d="M592.79 123.703L617.487 123.703L617.487 99.0061L592.79 99.0061L592.79 123.703Z" fill="#FF0A6B"/>
<path d="M716.273 123.703L740.97 123.703L740.97 99.0061L716.273 99.0061L716.273 123.703Z" fill="#FF0A6B"/>
<path d="M716.273 99.006L740.97 99.006L740.97 74.3093L716.273 74.3093L716.273 99.006Z" fill="#FCF18F"/>
<path d="M691.576 123.808L716.273 123.808L716.273 99.1119L691.576 99.1119L691.576 123.808Z" fill="#884515"/>
<path d="M691.576 49.7191L716.273 49.7191L716.273 25.0225L691.576 25.0225L691.576 49.7191Z" fill="#51003A"/>
<path d="M642.183 25.2455L666.879 25.2455L666.879 0.326761L642.183 0.326761L642.183 25.2455Z" fill="#FFA24C"/>
<path d="M642.183 49.7227L666.879 49.7227L666.879 25.0092L642.183 25.0092L642.183 49.7227Z" fill="#F0592D"/>
<path d="M568.094 74.4155L592.791 74.4155L592.791 49.7189L568.094 49.7189L568.094 74.4155Z" fill="#51003A"/>
<path d="M568.094 123.809L592.791 123.809L592.791 99.112L568.094 99.112L568.094 123.809Z" fill="#006C2B"/>
<path d="M222.362 99.1125L247.475 99.1125L247.475 74.416L222.362 74.416L222.362 99.1125Z" fill="#FB0AD5"/>
<path d="M247.038 99.1123L271.734 99.1123L271.734 74.4157L247.038 74.4157L247.038 99.1123Z" fill="#006C2B"/>
<path d="M197.645 99.1125L222.341 99.1125L222.341 74.416L197.645 74.416L197.645 99.1125Z" fill="#0D1450"/>
<path d="M617.488 99.1123L642.185 99.1123L642.185 74.4157L617.488 74.4157L617.488 99.1123Z" fill="black"/>
<path d="M617.488 124.245L642.185 124.245L642.185 99.1192L617.488 99.1192L617.488 124.245Z" fill="white"/>
</svg>
